<?xml version="1.0" encoding="UTF-8"?>
<svg width="82px" height="82px" viewBox="0 0 82 82" version="1.1" xmlns="http://www.w3.org/2000/svg" xmlns:xlink="http://www.w3.org/1999/xlink">
    <title>智旅链_logo备份 4</title>
    <g id="页面-1" stroke="none" stroke-width="1" fill="none" fill-rule="evenodd">
        <g id="首页-暗色" transform="translate(-818.000000, -3602.000000)">
            <g id="智旅链_logo备份-4" transform="translate(818.000000, 3602.000000)">
                <rect id="矩形备份-27" x="0" y="0" width="82" height="82"></rect>
                <g id="编组" transform="translate(9.189240, 8.723148)">
                    <rect id="矩形" fill="#FFFFFF" x="3.4893617" y="7.85106383" width="58.4468085" height="51.4680851"></rect>
                    <path d="M58.5140157,38.6242003 C55.9704108,44.5176748 51.6546411,48.8521048 46.1274376,52.1372548 C39.6198258,56.0048296 32.556127,57.3584808 25.1255732,56.2840273 C17.2457382,55.1449236 10.6922696,51.5622678 6.86699426,44.4215576 C2.47286162,36.2172644 3.82244661,28.2544085 9.14880872,20.9695225 C14.6493108,13.4472039 22.3683565,9.42401078 31.6918121,8.25973346 C37.2103087,7.57089322 42.4554054,8.38731766 47.4741202,10.7061461 C47.9065679,10.9058183 48.3175383,11.1483999 48.9038096,11.4584924 C48.0894149,12.9099772 47.3522222,14.2235795 46.6626278,15.451935 C44.5514706,14.7894126 42.6318673,13.963262 40.6251941,13.5976732 C32.4644132,12.1118608 25.1284755,14.0914183 18.6109958,19.0734954 C15.1363224,21.7298785 12.5004232,25.0390579 11.2024998,29.211576 C8.78195379,36.9936399 12.2560468,44.5434205 19.9983111,47.7078519 C29.3177034,51.5170698 38.0386346,49.8762111 46.0728737,44.1269125 C47.1983986,43.3213584 48.1968012,42.3367288 49.2108765,41.3898596 C49.7646417,40.8720851 50.2272736,40.2593377 50.6881641,39.5561943 C42.836772,42.1942693 34.8582577,42.1399173 26.5552626,41.1501386 C27.6001026,39.2541115 28.4858947,37.5800696 29.456435,35.9546583 C29.6015516,35.7115046 30.1680871,35.5450158 30.4966312,35.5976514 C36.05518,36.4924572 41.6485568,36.8803589 47.2442554,36.2275626 C50.8239933,35.8099103 54.3567135,35.003212 57.908589,34.3578534 C58.508211,34.2485773 59.0950628,34.0712181 60.1317763,33.8166218 C59.5263496,35.6394166 59.1374369,37.1807253 58.5140157,38.6242003 M55.5391241,17.9973256 C55.6256136,17.9910322 55.7167469,18.0402351 55.8055583,18.0642644 C52.8376322,21.9701716 42.1732986,22.5417259 37.7745223,21.0873805 C37.8197987,20.8940018 37.8238619,20.7944518 37.8650751,20.7132098 C39.0857965,18.2965477 39.1008886,18.2061517 41.7542017,18.6175106 C46.1582023,19.3006296 50.5018343,19.116977 54.8234087,18.0951592 C55.0567563,18.0396629 55.2988109,18.0162057 55.5391241,17.9973256 M60.059218,27.6039007 C58.1169765,29.6011941 56.0836018,30.7031097 53.8755066,31.5378422 C46.7206745,34.2422839 39.3266901,34.1490273 31.8740786,33.3308864 C31.6430529,33.3057129 31.4224756,33.1804172 31.0579425,33.0539772 C31.4439528,32.3279488 31.7492783,31.7392307 32.0679545,31.1579502 C33.4378558,28.6611904 33.4401777,28.6566134 36.3018783,29.1131703 C43.7051502,30.2951835 51.0207715,29.9089982 58.2539666,27.962624 C58.7090525,27.8401889 59.1809719,27.7766829 60.059218,27.6039007 M58.4606128,22.3775256 C54.4670021,27.152493 42.1344074,28.3499536 34.6475483,26.5208654 C35.2622625,25.4189498 35.7655271,24.3095966 36.4835644,23.3575782 C36.6954347,23.0766642 37.5394333,23.116713 38.0514049,23.2174073 C42.4385719,24.0824624 46.8565037,24.261538 51.282562,23.6979935 C53.6514465,23.3959107 55.9872443,22.8409481 58.4606128,22.3775256 M64.5241676,6.47069407 C64.4283906,2.69294315 61.4813613,-0.030378736 57.6555055,0.000255874377 C40.791788,0.138398565 23.9263291,0.059445116 7.0614506,0.0611614953 C2.87744688,0.0611614953 0.0157462256,2.84684516 0.011682959,7.00849293 C-0.00398964094,23.8742084 -0.00340917428,40.7393518 0.0105220257,57.6050673 C0.0145852923,61.811913 2.79908388,64.5432447 7.0353296,64.5483938 C15.4921484,64.5575478 23.9489673,64.5506823 32.4052056,64.5512545 C36.2711136,64.5512545 40.1370216,64.5518266 44.0029296,64.5512545 C48.6907784,64.5506823 53.3780467,64.5531915 58.065315,64.5466774 C59.6383796,64.5443889 61.0361434,64.2423062 62.3021412,63.114645 C64.1375768,61.4783633 64.5531915,59.4564685 64.5531915,57.2085837 C64.5497081,40.6758458 64.55203,24.1431078 64.5502886,7.61036995 C64.5502886,7.23047799 64.5340355,6.85058603 64.5241676,6.47069407" id="Fill-1" fill="#FF6E52"></path>
                </g>
            </g>
        </g>
    </g>
</svg>