<?xml version="1.0" encoding="UTF-8"?>
<svg width="82px" height="82px" viewBox="0 0 82 82" version="1.1" xmlns="http://www.w3.org/2000/svg" xmlns:xlink="http://www.w3.org/1999/xlink">
    <title>智旅链_logo备份 5</title>
    <g id="页面-1" stroke="none" stroke-width="1" fill="none" fill-rule="evenodd">
        <g id="首页-暗色" transform="translate(-1222.000000, -3434.000000)">
            <g id="智旅链_logo备份-5" transform="translate(1222.000000, 3434.000000)">
                <rect id="矩形备份-27" x="0" y="0" width="82" height="82"></rect>
                <g id="编组-6" transform="translate(8.723404, 8.723404)" fill-rule="nonzero">
                    <path d="M49.795716,17.2997469 L64.5531915,32.0613228 L49.795716,46.8187982 L44.8956929,41.9187751 L54.5112194,32.2991482 L44.6578675,22.4416958 L49.795716,17.2997469 Z M32.4959692,0 L37.3959923,4.90002311 L47.3928595,14.9009908 L42.255011,20.0388393 L32.2540433,10.041972 L27.1777014,15.118314 L43.706566,31.6471786 L39.1632809,36.1863631 L22.6385168,19.661599 L17.7343933,14.7574755 L32.4959692,0 Z" id="形状结合" fill="#6C77E3"></path>
                    <path d="M25.5457272,27.8132693 L46.8187982,49.0863403 L32.0613228,63.8438158 L27.1571992,58.9437926 L17.2997469,49.0863403 L21.8430319,44.5430553 L31.7004842,54.4005076 L36.7768262,49.3241657 L20.4037782,32.9511178 L25.5457272,27.8132693 Z M14.7574755,17.0250175 L19.661599,21.9291411 L9.44330814,32.1433315 L19.1572452,41.861369 L14.6180606,46.4005536 L4.90002311,36.6866165 L0,31.7865934 L4.54328503,27.2433084 L14.7574755,17.0250175 Z" id="形状结合" fill="#42D992"></path>
                </g>
            </g>
        </g>
    </g>
</svg>