<?xml version="1.0" encoding="UTF-8"?>
<svg width="82px" height="82px" viewBox="0 0 82 82" version="1.1" xmlns="http://www.w3.org/2000/svg" xmlns:xlink="http://www.w3.org/1999/xlink">
    <title>大数据分析引擎_logo备份 2</title>
    <defs>
        <linearGradient x1="28.6650036%" y1="15.1319682%" x2="95.6411909%" y2="100%" id="linearGradient-1">
            <stop stop-color="#00A868" offset="0%"></stop>
            <stop stop-color="#FFA800" offset="99.9371722%"></stop>
        </linearGradient>
    </defs>
    <g id="页面-1" stroke="none" stroke-width="1" fill="none" fill-rule="evenodd">
        <g id="首页-暗色" transform="translate(-1424.000000, -3598.000000)">
            <g id="大数据分析引擎_logo备份-2" transform="translate(1424.000000, 3598.000000)">
                <rect id="矩形备份-27" x="0" y="0" width="82" height="82"></rect>
                <g id="森林防火logo备份" transform="translate(7.949308, 6.159505)" fill="url(#linearGradient-1)" fill-rule="nonzero">
                    <path d="M51.8210881,41.3667688 C59.6058899,41.3667688 65.9396466,47.5685723 65.9396466,55.1911906 C65.9396466,58.3188914 64.8713949,61.2077069 63.076527,63.5263254 L63.076527,63.5263254 L61.3939943,61.8788324 C61.398557,61.8721967 61.4008248,61.8664151 61.4053204,61.8631299 C62.7774717,59.9777372 63.5878127,57.6759511 63.5878127,55.1911773 C63.5878127,48.8389867 58.3083647,43.6708412 51.8210881,43.6708412 C49.2834602,43.6708412 46.9326865,44.4631174 45.0083331,45.8066166 C44.7929489,45.9568725 44.5819932,46.1117931 44.3779486,46.2745977 L44.3779486,46.2745977 L48.5992632,50.4158654 C48.6532099,48.7492011 49.2411079,47.5404526 49.8565967,46.7245901 C50.9237883,45.3059301 52.2635985,44.7447865 52.3198265,44.7213316 C52.3507586,44.70898 52.3885347,44.7156157 52.4103415,44.7426184 C52.4355032,44.7662704 52.440133,44.8032595 52.4240295,44.8345984 C49.7993757,49.7222706 54.0906062,53.8791617 55.0097799,54.6894398 C54.5880698,51.6548359 57.9371793,50.2844654 57.972674,50.2709969 C58.0093095,50.2564772 58.049434,50.2687632 58.0723144,50.3002335 C58.0930476,50.3338718 58.0895585,50.3765768 58.0621155,50.4012143 L58.0621155,50.4012143 L58.0535906,50.4109254 C57.931435,50.5531565 56.588495,52.2593848 58.9010401,57.1730966 C59.5153882,58.6163941 59.7044699,59.9226939 59.4672119,61.0730351 L59.4672119,61.0730351 L62.5813446,64.1267576 C59.991045,67.1153714 56.1284893,69.0165322 51.8210881,69.0165322 C44.0364876,69.0165322 37.7027309,62.8147419 37.7027309,55.1911905 C37.7027309,52.0633584 38.7709961,49.1756597 40.5657969,46.8569755 L40.5657969,46.8569755 L42.24841,48.5045342 C42.2438474,48.5113013 42.241566,48.514652 42.2369363,48.5214848 C40.8649863,50.4047095 40.0547124,52.7064299 40.0547124,55.1912037 C40.0547124,61.5445113 45.3339591,66.7136422 51.8211015,66.7136422 C54.3587428,66.7136422 56.7095702,65.9190665 58.6341383,64.5768813 C58.8483147,64.4253115 59.060344,64.2715078 59.2643886,64.1065351 L59.2643886,64.1065351 L58.3692359,63.2300972 C57.3709405,64.3556695 55.9347912,65.0178597 54.7748033,65.3937951 C54.7346787,65.4062124 54.6911993,65.3893932 54.6739552,65.3510901 C54.6567782,65.314101 54.6682519,65.2726443 54.7038138,65.2479411 C55.3170883,64.8585373 55.6723044,64.3602685 55.7639601,63.7721222 C55.8946667,62.9337378 55.4660456,62.0753016 55.0235351,61.5500302 C54.5811589,61.0292263 54.6269868,60.1213838 54.6946885,59.6264001 L54.6946885,59.6264001 L54.6131646,59.546706 C53.3730618,60.487254 53.9747955,62.0808073 54.0011649,62.1516319 C54.0160607,62.1885553 54.0035134,62.2290265 53.9714406,62.2481452 C53.9381601,62.2704832 53.8957542,62.2649644 53.868177,62.2390786 C53.8315416,62.2020894 52.9787948,61.3592242 53.2916722,60.1852311 C53.5083983,59.5556937 53.5908616,59.0091354 53.5816691,58.534453 L53.5816691,58.534453 L52.3541137,57.3313022 C52.3576028,59.3043387 50.5672304,60.7497254 50.5443501,60.7667417 C50.516907,60.7902623 50.4802045,60.7913792 50.450413,60.7733774 C50.4206216,60.7565582 50.4056588,60.7218029 50.4114292,60.6890843 C50.6337915,59.5556937 49.7419938,58.9103884 49.2915658,58.6623052 C49.4658189,59.0708409 49.6216872,60.0225579 48.7529041,61.8708958 C47.8395009,64.015659 49.0681433,65.0705381 50.2600563,65.5778734 C50.2967589,65.5946926 50.3163514,65.6362807 50.3048106,65.6778031 C50.2921962,65.7148578 50.2509981,65.740678 50.2108736,65.7305602 C49.5814956,65.6149938 49.0131767,65.4791263 48.4171463,65.2995025 C46.0973047,64.4892902 44.6942347,63.2614887 44.2450145,61.6520491 C43.7086341,59.7296673 44.6989315,57.6545461 45.7109687,56.460383 C46.881142,55.078975 46.214055,52.0913466 46.207211,52.059942 C46.200367,52.0285374 46.2118407,51.9959503 46.2392838,51.9757804 C46.2667939,51.956596 46.301148,51.9554791 46.3287252,51.9713785 C48.1144679,52.986969 48.5316153,54.5548205 48.5671771,55.6916932 C48.5913324,56.4683985 48.4502927,57.1439258 48.3390444,57.5434475 C48.756326,57.0103577 49.5082247,55.8094407 49.2721744,54.307933 L49.2721744,54.307933 L41.0609658,46.2543753 C43.6524866,43.2691778 47.5138883,41.3667688 51.8210881,41.3667688 Z M31.6752141,0.0490912104 C31.7452208,0.00996275992 31.8336924,0.0349945724 31.8728209,0.105001328 L31.8728209,0.105001328 L39.8647423,14.4037658 C39.8768443,14.425418 39.8831982,14.4498093 39.8831982,14.4746141 C39.8831982,14.5548138 39.8181835,14.6198284 39.7379839,14.6198284 L39.7379839,14.6198284 L35.9641939,14.6198284 L44.072859,26.3686737 C44.0895959,26.3929243 44.0985596,26.4216926 44.0985596,26.4511581 C44.0985596,26.5313577 44.033545,26.5963724 43.9533453,26.5963724 L43.9533453,26.5963724 L38.9647901,26.5963724 L47.9816917,37.4239891 C48.0034201,37.4500807 48.0153183,37.4829615 48.0153183,37.5169158 C48.0153183,37.5971155 47.9503037,37.6621301 47.8701041,37.6621301 L47.8701041,37.6621301 L41.8771505,37.6621301 L44.3916386,40.6979305 C44.4380427,40.7539554 44.4358309,40.8356716 44.386464,40.8891043 L44.386464,40.8891043 L36.0073131,49.9583435 C35.9798251,49.9880954 35.9411597,50.0050139 35.9006534,50.0050139 L35.9006534,50.0050139 L34.237665,50.0050139 L36.2789315,65.2620125 C36.2797856,65.268396 36.280214,65.2748292 36.280214,65.2812695 C36.280214,65.3614691 36.2151994,65.4264838 36.1349998,65.4264838 L36.1349998,65.4264838 L27.2895106,65.4260751 L27.2895106,65.4260751 L27.2786844,65.4248512 C27.1993864,65.412859 27.1448243,65.3388538 27.1568164,65.2595558 L27.1568164,65.2595558 L29.4637459,50.0050139 L12.4144422,50.0050139 C12.3825154,50.0050139 12.3514784,49.9944922 12.3261336,49.9750766 C12.2624679,49.9263051 12.2503937,49.8351568 12.2991652,49.7714911 L12.2991652,49.7714911 L21.5756089,37.6621301 L15.5816413,37.6621301 C15.5476872,37.6621301 15.5148066,37.650232 15.488715,37.6285039 C15.4270866,37.5771821 15.4187315,37.4856179 15.4700532,37.4239895 L15.4700532,37.4239895 L24.4868844,26.5963724 L19.499627,26.5963724 C19.4701621,26.5963724 19.4413943,26.587409 19.4171441,26.5706728 C19.3511379,26.5251187 19.3345582,26.4346813 19.3801123,26.3686752 L19.3801123,26.3686752 L27.4885655,14.6198284 L23.7142932,14.6198284 C23.689384,14.6198284 23.6648937,14.613421 23.6431762,14.601222 C23.5732525,14.5619452 23.5484084,14.4734207 23.5876853,14.4034971 L23.5876853,14.4034971 L31.6194545,0.104732643 C31.6325594,0.0814022779 31.651856,0.0621466153 31.6752141,0.0490912104 Z M15.5751397,18.825407 L18.5110251,24.0791354 C18.5380221,24.1274463 18.5352121,24.1869023 18.5037791,24.2324516 L18.5037791,24.2324516 L14.7348744,29.6939375 L19.6882551,29.6939375 C19.7222071,29.6939375 19.7550858,29.7058342 19.7811767,29.7275598 C19.8428073,29.778879 19.8511663,29.8704428 19.7998471,29.9320734 L19.7998471,29.9320734 L10.7847307,40.7585622 L16.7932913,40.7585622 C16.825216,40.7585622 16.856251,40.7690826 16.8815949,40.7884957 C16.9452627,40.8372644 16.9573409,40.9284123 16.9085721,40.9920801 L16.9085721,40.9920801 L7.63225313,53.1023666 L26.7800299,53.1028747 L26.7800299,53.1028747 L26.7920811,53.1043952 C26.8711604,53.1177536 26.9244378,53.1926891 26.9110794,53.2717684 L26.9110794,53.2717684 L25.9792757,58.7878937 C25.967472,58.8577696 25.9069559,58.9089205 25.8360899,58.9089205 L25.8360899,58.9089205 L19.2717863,58.9089205 L20.1435127,65.4264838 L10.9741484,65.4264838 L11.9598581,58.9089205 L0.175244217,58.9089205 C0.143320472,58.9089205 0.112286331,58.8984008 0.0869427672,58.8789887 C0.0232740293,58.8302211 0.011194225,58.7390735 0.059961769,58.6754048 L0.059961769,58.6754048 L7.44218457,49.0375028 L2.71078138,49.0375028 C2.67681872,49.0375028 2.64393039,49.0255987 2.61783595,49.0038606 C2.55621637,48.9525283 2.54787692,48.8609627 2.59920926,48.7993431 L2.59920926,48.7993431 L9.77009114,40.1913835 L5.83730556,40.1913835 C5.80784339,40.1913835 5.77907814,40.1824218 5.75482918,40.1656884 C5.68882056,40.1201379 5.67223593,40.0297014 5.71778637,39.9636928 L5.71778637,39.9636928 L12.1703946,30.6130094 L9.20139456,30.6130094 C9.17648334,30.6130094 9.15199099,30.6066009 9.13027217,30.5944 C9.06035023,30.5551202 9.03550987,30.4665947 9.07478968,30.3966727 L9.07478968,30.3966727 L15.5751397,18.825407 Z M47.8285608,18.0924703 C47.8985698,18.0533458 47.9870399,18.0783827 48.0261644,18.1483917 L48.0261644,18.1483917 L54.3668245,29.4943118 C54.3789238,29.5159623 54.3852763,29.540351 54.3852763,29.565153 C54.3852763,29.6453526 54.3202616,29.7103673 54.240062,29.7103673 L54.240062,29.7103673 L51.2710823,29.7103673 L57.7243018,39.060048 C57.7410402,39.0842992 57.7500047,39.1130688 57.7500047,39.1425356 C57.7500047,39.2227353 57.6849901,39.2877499 57.6047904,39.2877499 L57.6047904,39.2877499 L53.7332159,39.2877499 C53.6940522,39.2877499 53.6565488,39.271931 53.629216,39.2438826 L53.629216,39.2438826 L43.6835356,29.0378567 C43.6571101,29.0107395 43.6423212,28.9743733 43.6423212,28.9365097 C43.6423212,28.8563101 43.7073358,28.7912955 43.7875355,28.7912955 L43.7875355,28.7912955 L48.7073979,28.7912955 L44.9379171,23.3303549 C44.9063318,23.2845965 44.9036474,23.22482 44.9310041,23.1764147 L44.9310041,23.1764147 L47.7729806,18.1477846 C47.7860844,18.1245986 47.8053122,18.1054628 47.8285608,18.0924703 Z" id="形状结合"></path>
                </g>
            </g>
        </g>
    </g>
</svg>