<?xml version="1.0" encoding="UTF-8"?>
<svg width="32px" height="32px" viewBox="0 0 32 32" version="1.1" xmlns="http://www.w3.org/2000/svg" xmlns:xlink="http://www.w3.org/1999/xlink">
    <title>暗色系-点击</title>
    <defs>
        <filter color-interpolation-filters="auto" id="filter-1">
            <feColorMatrix in="SourceGraphic" type="matrix" values="0 0 0 0 0.717647 0 0 0 0 0.733333 0 0 0 0 0.776471 0 0 0 1.000000 0"></feColorMatrix>
        </filter>
    </defs>
    <g id="页面-1" stroke="none" stroke-width="1" fill="none" fill-rule="evenodd">
        <g id="画板" transform="translate(-107.000000, -53.000000)">
            <g id="暗色系-点击" transform="translate(107.000000, 53.000000)">
                <rect id="矩形备份-35" fill-opacity="0.103611233" fill="#B6B8C2" x="0" y="0" width="32" height="32" rx="8"></rect>
                <g filter="url(#filter-1)" id="暗色系">
                    <g transform="translate(7.000000, 7.000000)">
                        <path d="M9.30980335,18 C6.74114724,18 4.54869935,17.090528 2.7288596,15.2697832 C0.909019845,13.4490383 -1.12890066e-16,11.253699 -1.12890066e-16,8.68556632 C-1.12890066e-16,6.83780743 0.522011406,5.12691957 1.56423417,3.54569901 C2.60825699,1.96627938 3.97268679,0.802875628 5.65752359,0.0518859153 C5.76372592,-0.0291561448 5.87172827,-0.014748662 5.97793059,0.0915064843 C6.1111335,0.172548545 6.15253442,0.291410216 6.09853322,0.453494337 C5.67192389,1.4728233 5.45771921,2.50115696 5.45771921,3.54569901 C5.45771921,5.92833546 6.30733777,7.96879436 8.00657489,9.66887659 C9.70581202,11.3689588 11.7452566,12.219 14.1267086,12.219 C15.4371372,12.219 16.5747621,12.0190962 17.5377831,11.6174878 C17.6439854,11.5346448 17.7501877,11.5490523 17.8563901,11.6553075 C17.989593,11.7363495 18.0309939,11.8552112 17.9769927,12.0172953 C17.2821775,13.8380402 16.1517528,15.2895934 14.5857186,16.3737561 C13.0214844,17.4579187 11.262846,18 9.30980335,18 Z" id="路径" fill="#000000" fill-rule="nonzero"></path>
                    </g>
                </g>
            </g>
        </g>
    </g>
</svg>