<?xml version="1.0" encoding="UTF-8"?>
<svg width="82px" height="82px" viewBox="0 0 82 82" version="1.1" xmlns="http://www.w3.org/2000/svg" xmlns:xlink="http://www.w3.org/1999/xlink">
    <title>灵狐logo</title>
    <defs>
        <linearGradient x1="30.6765392%" y1="34.2077378%" x2="67.2047758%" y2="66.830361%" id="linearGradient-1">
            <stop stop-color="#FF3A3A" offset="0%"></stop>
            <stop stop-color="#A71616" offset="100%"></stop>
        </linearGradient>
        <linearGradient x1="6.22929951%" y1="8.49735818%" x2="59.8224347%" y2="97.5651065%" id="linearGradient-2">
            <stop stop-color="#FF7E4B" offset="0%"></stop>
            <stop stop-color="#E51414" offset="100%"></stop>
        </linearGradient>
        <linearGradient x1="125.904344%" y1="-12.1204936%" x2="2.38775562%" y2="104.503165%" id="linearGradient-3">
            <stop stop-color="#FF8278" offset="0%"></stop>
            <stop stop-color="#B30000" offset="100%"></stop>
        </linearGradient>
        <linearGradient x1="12.4328123%" y1="41.2344188%" x2="44.7736069%" y2="62.2251738%" id="linearGradient-4">
            <stop stop-color="#FF693F" offset="0%"></stop>
            <stop stop-color="#F21212" offset="100%"></stop>
        </linearGradient>
        <linearGradient x1="50%" y1="7.28261236%" x2="50%" y2="84.4452938%" id="linearGradient-5">
            <stop stop-color="#FF5E30" offset="0%"></stop>
            <stop stop-color="#D50505" offset="100%"></stop>
        </linearGradient>
        <linearGradient x1="50%" y1="0%" x2="50%" y2="84.4452938%" id="linearGradient-6">
            <stop stop-color="#FF7148" offset="0%"></stop>
            <stop stop-color="#FD514D" offset="100%"></stop>
        </linearGradient>
    </defs>
    <g id="页面-1" stroke="none" stroke-width="1" fill="none" fill-rule="evenodd">
        <g id="首页-暗色" transform="translate(-414.000000, -3434.000000)">
            <g id="灵狐logo" transform="translate(414.000000, 3434.000000)">
                <rect id="矩形" x="0" y="0" width="82" height="82"></rect>
                <g id="编组-2" transform="translate(8.000000, 8.000000)">
                    <rect id="矩形" fill="#D8D8D8" opacity="0" x="0" y="0" width="66" height="66"></rect>
                    <g id="件1备份-7" transform="translate(6.600000, 2.474807)">
                        <path d="M0.978361224,25.4180843 C5.25120711,26.5967015 8.09687898,27.5175565 9.51537684,28.1806495 C13.3719022,29.9834262 15.7999824,31.7946751 16.9508421,32.8770103 C21.3570437,37.0208581 24.3863073,43.0985015 24.3863073,43.0985015 C24.3863073,43.0985015 24.7492578,43.5991331 25.3384369,44.345683 C27.9510525,49.0408328 32.9519917,52.2149666 38.6919579,52.2149666 C41.960232,52.2149666 44.9889107,51.1858999 47.473576,49.4331449 C50.0792007,47.7734917 52.1139676,45.2925652 53.2159245,42.3534426 L53.3020053,42.2697319 C51.2824962,47.4265203 48.9875996,51.1099405 46.4173153,53.3199926 C37.7345062,60.7858831 28.9848369,62.2420287 21.0816561,60.2264056 C4.83378763,56.0825578 -2.87706518,41.1647059 0.978361224,25.4180843 Z" id="形状结合备份-23" fill="url(#linearGradient-1)"></path>
                        <path d="M0.978361224,25.4180843 L1.18242865,25.4748959 C2.32128518,26.3047934 3.16545718,26.9764318 3.71494465,27.4898111 C6.82562957,30.3960855 8.5751644,32.8690036 9.33523699,34.2540008 C12.092105,39.2775399 13.1373182,45.5698411 13.2397039,46.218273 L13.2481702,46.2729016 C13.2481702,46.2729016 13.2557895,46.2964331 13.2706175,46.3412201 L13.3097637,46.4584604 C13.3906213,46.6988474 13.5485349,47.1585477 13.768299,47.753266 C14.7982213,53.0058589 18.5487301,57.5553046 23.9741444,59.3434552 C25.8482712,60.091265 27.8921198,60.5026621 30.0317531,60.5026621 C32.3415733,60.5026621 34.5397654,60.0232169 36.5328314,59.1581194 C36.392606,59.2835617 36.2527799,59.4061377 36.1132931,59.5261055 C30.9281926,61.3948105 25.8508011,61.4427258 21.0816561,60.2264056 C4.83378763,56.0825578 -2.87706518,41.1647059 0.978361224,25.4180843 Z" id="形状结合备份-24" fill="url(#linearGradient-2)"></path>
                        <path d="M51.3742921,23.7605452 C51.1044305,29.6300135 44.2142145,29.8381886 40.6341757,34.8108059 C39.0439435,37.0196134 37.3295245,42.822245 36.5033617,43.6510145 C35.585403,45.3085536 33.1987105,46.0452377 29.3432841,45.8610667 C33.4740981,48.3473753 35.8364856,48.7481216 38.9818501,48.6236318 C41.111917,48.5393263 47.1726987,46.8412924 50.5481293,42.2697319 C53.5583825,38.1927544 54.0809224,31.4205796 53.3020053,27.904393 C53.0110491,26.590959 52.3684781,25.2096764 51.3742921,23.7605452 Z" id="路径-3备份-6" fill="url(#linearGradient-3)"></path>
                        <path d="M53.2935039,35.2004557 C52.863353,37.7391469 51.9918493,40.31441 50.5481293,42.2697319 C47.1726987,46.8412924 41.111917,48.5393263 38.9818501,48.6236318 C35.8364856,48.7481216 33.4740981,48.3473753 29.3432841,45.8610667 C29.3699828,45.862342 29.396611,45.8635733 29.4231689,45.8647603 C32.8945566,47.1400275 35.3052628,47.1470952 36.6556416,45.8862848 C37.6966675,45.354182 41.1146487,40.3670077 43.3074615,38.7592663 C46.4489402,36.4559757 50.270953,36.4031953 53.1672755,35.2523975 Z" id="形状结合备份-25" fill="url(#linearGradient-4)"></path>
                        <path d="M47.3854486,1.71413483 C46.564657,3.60010312 46.041119,5.74915762 46.0130867,7.92205168 C46.006203,8.45563244 46.0518849,9.01689067 46.1501324,9.60582637 C46.2807771,14.2086479 47.8399481,18.4516953 50.3987625,21.9050145 C38.8731271,23.5666566 29.9042027,30.9057485 28.4488552,40.059608 L26.106902,40.0596232 C24.6515411,30.9055866 15.6823783,23.5663628 4.15672647,21.9041956 C6.83141594,18.2956708 8.41382644,13.8236251 8.41382644,8.98082152 C8.41382644,8.35467756 8.3873735,7.73473151 8.33552757,7.12204665 C8.29927075,6.58454622 8.23361069,6.04974136 8.14186431,5.5219943 C7.83458233,3.60817253 7.27911244,1.77785849 6.50853884,0.065884662 C7.63409569,0.433383453 10.8483756,1.52800796 14.1507219,2.92410052 L14.7486492,3.17985342 C16.5426828,3.95641767 18.3271424,4.81421095 19.7824155,5.68516173 C20.3175336,6.00541884 20.8174359,6.33040574 21.2839978,6.65740309 C23.2008155,6.28023789 25.2092491,6.08012808 27.2778771,6.08012808 C29.2977133,6.08012808 31.2601611,6.27090942 33.1369612,6.63052999 C33.591283,6.31258452 34.0784153,5.99663616 34.5988584,5.68516173 C36.0541315,4.81421095 37.8385911,3.95641767 39.6326247,3.17985342 L40.230552,2.92410052 C43.7618568,1.43121397 47.1924603,0.283047419 48.0774752,0.000316507351 C47.8231525,0.558958931 47.5922061,1.13079629 47.3854486,1.71413483 Z" id="形状结合" fill="url(#linearGradient-5)"></path>
                        <path d="M27.2778771,6.08012808 C34.0558852,6.08012808 40.1876509,8.22849153 44.6052993,11.6960631 C36.6555164,13.8605906 30.2021811,19.6714528 27.1394336,27.2278131 C24.1045259,19.7364396 17.7356003,13.9606697 9.88026878,11.7524411 C14.3017531,8.25180793 20.463187,6.08012808 27.2778771,6.08012808 Z" id="形状结合备份-27" fill="url(#linearGradient-6)"></path>
                    </g>
                </g>
            </g>
        </g>
    </g>
</svg>