<?xml version="1.0" encoding="UTF-8"?>
<svg width="82px" height="82px" viewBox="0 0 82 82" version="1.1" xmlns="http://www.w3.org/2000/svg" xmlns:xlink="http://www.w3.org/1999/xlink">
    <title>生态云logo</title>
    <defs>
        <linearGradient x1="50%" y1="0%" x2="50%" y2="95.5774694%" id="linearGradient-1">
            <stop stop-color="#87F8A6" offset="0%"></stop>
            <stop stop-color="#6DC5FF" offset="100%"></stop>
        </linearGradient>
        <path d="M25.8168421,4.39285847 C33.745452,4.39285847 40.8733584,7.81990895 45.7991104,13.2730365 C41.7596598,9.79224272 36.5006288,7.68750232 30.7500093,7.68750232 C18.0129384,7.68750232 7.68750232,18.0129384 7.68750232,30.7500093 C7.68750232,34.6160849 8.63878583,38.2599764 10.3200497,41.4603806 C10.2872545,41.4436706 10.2555309,41.430766 10.2251032,41.4208177 C11.3859892,43.7825944 12.7960102,45.9315951 14.4551663,47.86782 C25.8188388,45.4644047 32.9407987,37.4867417 35.8224763,23.934857 C26.3592948,43.6740737 9.20388104,46.6554018 15.744473,31.2147284 C20.3111873,21.0870994 32.2846303,15.2210602 45.5220956,16.8931519 C45.2711304,17.1446236 44.5218888,17.6342266 44.0041574,18.4185239 C41.0869648,21.9471615 44.6803018,34.1940251 33.1156675,44.1924271 C30.8412127,46.1878225 23.2755241,49.0304233 17.7199798,51.1359579 C22.0978093,54.6617323 28.3666848,56.5580528 34.6055543,56.5580528 C45.7791152,56.5580528 55.424805,50.0186888 59.92175,40.5596008 C55.8265178,52.7324868 44.3177377,61.5000186 30.7604927,61.5000186 C13.7719417,61.5000186 0,47.7327704 0,30.7500093 C0,25.1599162 1.4921643,19.918218 4.10004567,15.4012336 C9.29029667,7.81990895 16.9011975,4.39285847 25.8168421,4.39285847 Z M30.7604927,0 C47.3678267,0 60.9012909,13.1563162 61.5003007,29.6117245 C60.9443196,43.9815052 49.1158481,55.4598382 34.6055543,55.4598382 C29.2273831,55.4598382 24.217635,53.882969 20.0137219,51.1664936 C23.2205629,52.8561402 26.8735993,53.8125163 30.7500093,53.8125163 C43.3034344,53.8125163 53.5142662,43.7826823 53.8061004,31.2994189 L53.8308623,31.2991166 L53.8271092,30.8360114 C53.822144,30.5298759 53.8122648,30.2249344 53.7975471,29.9212624 C53.7562832,28.742855 53.6262472,27.5869162 53.4142272,26.4599103 C51.1210174,13.2998314 39.6377465,3.29464385 25.8168421,3.29464385 C19.7182656,3.29464385 14.0748454,5.24273492 9.47532188,8.55037712 C15.0012476,3.25442578 22.5006847,0 30.7604927,0 Z" id="path-2"></path>
        <linearGradient x1="50%" y1="0%" x2="50%" y2="99.3908435%" id="linearGradient-4">
            <stop stop-color="#00FD94" offset="0%"></stop>
            <stop stop-color="#46EEB3" offset="30.2529502%"></stop>
            <stop stop-color="#7BE2CB" offset="53.1413899%"></stop>
            <stop stop-color="#0083FE" offset="100%"></stop>
        </linearGradient>
        <linearGradient x1="85.5493628%" y1="17.0118563%" x2="34.0542879%" y2="100%" id="linearGradient-5">
            <stop stop-color="#84F2B1" offset="0%"></stop>
            <stop stop-color="#29E2AE" offset="28.8796149%"></stop>
            <stop stop-color="#00D1BB" offset="50.7224487%"></stop>
            <stop stop-color="#189CAD" offset="71.4851313%"></stop>
            <stop stop-color="#0089FA" offset="100%"></stop>
        </linearGradient>
    </defs>
    <g id="页面-1" stroke="none" stroke-width="1" fill="none" fill-rule="evenodd">
        <g id="首页-暗色" transform="translate(-1020.000000, -3434.000000)">
            <g id="生态云logo" transform="translate(1020.000000, 3434.000000)">
                <rect id="矩形备份-37" x="0" y="0" width="82" height="82"></rect>
                <g id="生态云@3x">
                    <rect id="矩形" x="0" y="0" width="82" height="82"></rect>
                    <g id="椭圆形" transform="translate(10.250000, 10.250000)">
                        <g id="蒙版" fill="url(#linearGradient-1)" fill-rule="nonzero">
                            <path d="M25.8168421,4.39285847 C33.745452,4.39285847 40.8733584,7.81990895 45.7991104,13.2730365 C41.7596598,9.79224272 36.5006288,7.68750232 30.7500093,7.68750232 C18.0129384,7.68750232 7.68750232,18.0129384 7.68750232,30.7500093 C7.68750232,34.6160849 8.63878583,38.2599764 10.3200497,41.4603806 C10.2872545,41.4436706 10.2555309,41.430766 10.2251032,41.4208177 C11.3859892,43.7825944 12.7960102,45.9315951 14.4551663,47.86782 C25.8188388,45.4644047 32.9407987,37.4867417 35.8224763,23.934857 C26.3592948,43.6740737 9.20388104,46.6554018 15.744473,31.2147284 C20.3111873,21.0870994 32.2846303,15.2210602 45.5220956,16.8931519 C45.2711304,17.1446236 44.5218888,17.6342266 44.0041574,18.4185239 C41.0869648,21.9471615 44.6803018,34.1940251 33.1156675,44.1924271 C30.8412127,46.1878225 23.2755241,49.0304233 17.7199798,51.1359579 C22.0978093,54.6617323 28.3666848,56.5580528 34.6055543,56.5580528 C45.7791152,56.5580528 55.424805,50.0186888 59.92175,40.5596008 C55.8265178,52.7324868 44.3177377,61.5000186 30.7604927,61.5000186 C13.7719417,61.5000186 0,47.7327704 0,30.7500093 C0,25.1599162 1.4921643,19.918218 4.10004567,15.4012336 C9.29029667,7.81990895 16.9011975,4.39285847 25.8168421,4.39285847 Z M30.7604927,0 C47.3678267,0 60.9012909,13.1563162 61.5003007,29.6117245 C60.9443196,43.9815052 49.1158481,55.4598382 34.6055543,55.4598382 C29.2273831,55.4598382 24.217635,53.882969 20.0137219,51.1664936 C23.2205629,52.8561402 26.8735993,53.8125163 30.7500093,53.8125163 C43.3034344,53.8125163 53.5142662,43.7826823 53.8061004,31.2994189 L53.8308623,31.2991166 L53.8271092,30.8360114 C53.822144,30.5298759 53.8122648,30.2249344 53.7975471,29.9212624 C53.7562832,28.742855 53.6262472,27.5869162 53.4142272,26.4599103 C51.1210174,13.2998314 39.6377465,3.29464385 25.8168421,3.29464385 C19.7182656,3.29464385 14.0748454,5.24273492 9.47532188,8.55037712 C15.0012476,3.25442578 22.5006847,0 30.7604927,0 Z" id="path-2"></path>
                        </g>
                        <g id="Clipped">
                            <mask id="mask-3" fill="white">
                                <use xlink:href="#path-2"></use>
                            </mask>
                            <g id="path-2"></g>
                            <g id="编组" mask="url(#mask-3)">
                                <g transform="translate(1.366667, 8.883333)" id="path-6-link">
                                    <g>
                                        <circle id="path-6" fill="url(#linearGradient-4)" fill-rule="nonzero" cx="24.9416667" cy="24.9416667" r="24.9416667"></circle>
                                    </g>
                                    <g>
                                        <circle id="path-6" fill="url(#linearGradient-5)" fill-rule="nonzero" cx="24.9416667" cy="24.9416667" r="24.9416667"></circle>
                                    </g>
                                </g>
                            </g>
                        </g>
                    </g>
                </g>
            </g>
        </g>
    </g>
</svg>