<?xml version="1.0" encoding="UTF-8"?>
<svg width="82px" height="82px" viewBox="0 0 82 82" version="1.1" xmlns="http://www.w3.org/2000/svg" xmlns:xlink="http://www.w3.org/1999/xlink">
    <title>慧旅云logo</title>
    <defs>
        <filter color-interpolation-filters="auto" id="filter-1">
            <feColorMatrix in="SourceGraphic" type="matrix" values="0 0 0 0 0.180392 0 0 0 0 0.439216 0 0 0 0 1.000000 0 0 0 1.000000 0"></feColorMatrix>
        </filter>
    </defs>
    <g id="页面-1" stroke="none" stroke-width="1" fill="none" fill-rule="evenodd">
        <g id="首页-暗色" transform="translate(-818.000000, -3434.000000)">
            <g id="慧旅云logo" transform="translate(818.000000, 3434.000000)">
                <rect id="矩形备份-39" x="0" y="0" width="82" height="82"></rect>
                <g filter="url(#filter-1)" id="编组-29">
                    <g transform="translate(10.000000, 10.000000)">
                        <rect id="矩形" x="0" y="0" width="62" height="62"></rect>
                        <g id="环球数科-白" transform="translate(0.000000, 1.550000)" fill="#FFFFFF" fill-rule="nonzero">
                            <g id="编组">
                                <path d="M60.068905,31.0348791 L1.93429752,31.0348791 C0.883884298,31.0348791 0.0320247934,31.8886672 0.0320247934,32.9414587 C0.0320247934,33.9942501 0.883884298,34.8480383 1.93429752,34.8480383 L60.068905,34.8480383 C61.1193182,34.8480383 61.9711777,33.9942501 61.9711777,32.9414587 C61.9711777,31.8886672 61.1193182,31.0348791 60.068905,31.0348791 Z" id="路径"></path>
                                <path d="M57.8720041,38.7927964 L4.13119835,38.7927964 C3.08078512,38.7927964 2.22892562,39.6465846 2.22892562,40.699376 C2.22892562,41.7521674 3.08078512,42.6059556 4.13119835,42.6059556 L57.8720041,42.6059556 C58.9224174,42.6059556 59.7742769,41.7521674 59.7742769,40.699376 C59.7742769,39.6465846 58.9224174,38.7927964 57.8720041,38.7927964 L57.8720041,38.7927964 Z" id="路径"></path>
                                <path d="M52.940186,46.5539235 L9.07262397,46.5539235 C7.94535124,46.5539235 7.03904959,47.4783257 7.12231405,48.6017312 C7.19597107,49.590328 8.01580579,50.3670827 9.0213843,50.3670827 L52.9850207,50.3670827 C54.022624,50.3670827 54.8680785,49.5325529 54.8875966,48.4958101 C54.9065083,47.42697 54.009814,46.5507137 52.940186,46.5507137 L52.940186,46.5539235 Z" id="路径"></path>
                                <path d="M42.1926653,54.3118408 L19.8105372,54.3118408 C18.760124,54.3118408 17.9082645,55.165629 17.9082645,56.2184204 C17.9082645,57.2712118 18.760124,58.125 19.8105372,58.125 L42.1926653,58.125 C43.2430785,58.125 44.094938,57.2712118 44.094938,56.2184204 C44.094938,55.165629 43.2430785,54.3118408 42.1926653,54.3118408 Z" id="路径"></path>
                                <g transform="translate(0.000000, 23.276962)" id="路径">
                                    <path d="M1.90227273,3.8131592 L27.8039256,3.8131592 C28.8543388,3.8131592 29.7061983,2.95937103 29.7061983,1.9065796 C29.7061983,0.853788172 28.8543388,0 27.8039256,0 L1.90227273,0 C0.851859504,0 0,0.853788172 0,1.9065796 C0,2.95937103 0.851859504,3.8131592 1.90227273,3.8131592 Z"></path>
                                    <path d="M60.0977273,3.8131592 L34.1992769,3.8131592 C33.1488636,3.8131592 32.2970041,2.95937103 32.2970041,1.9065796 C32.2970041,0.853788172 33.1488636,0 34.1992769,0 L60.0977273,0 C61.1481405,0 62,0.853788172 62,1.9065796 C62,2.95937103 61.1481405,3.8131592 60.0977273,3.8131592 L60.0977273,3.8131592 Z"></path>
                                </g>
                                <g transform="translate(7.045455, 7.761127)" id="路径">
                                    <path d="M1.90227273,3.8131592 L20.8353306,3.8131592 C21.8857438,3.8131592 22.7376033,2.95937103 22.7376033,1.9065796 C22.7376033,0.853788172 21.8857438,0 20.8353306,0 L1.90227273,0 C0.851859504,0 0,0.853788172 0,1.9065796 C0,2.95937103 0.851859504,3.8131592 1.90227273,3.8131592 Z"></path>
                                    <path d="M46.0068182,3.8131592 L27.0737603,3.8131592 C26.0233471,3.8131592 25.1714876,2.95937103 25.1714876,1.9065796 C25.1714876,0.853788172 26.0233471,0 27.0737603,0 L46.0068182,0 C47.0572314,0 47.9090909,0.853788172 47.9090909,1.9065796 C47.9090909,2.95937103 47.0572314,3.8131592 46.0068182,3.8131592 Z"></path>
                                </g>
                                <g transform="translate(2.196901, 15.519044)" id="路径">
                                    <path d="M1.90227273,3.8131592 L25.6838843,3.8131592 C26.7342975,3.8131592 27.586157,2.95937103 27.586157,1.9065796 C27.586157,0.853788172 26.7342975,0 25.6838843,0 L1.90227273,0 C0.851859504,0 0,0.853788172 0,1.9065796 C0,2.95937103 0.851859504,3.8131592 1.90227273,3.8131592 Z"></path>
                                    <path d="M55.7071281,3.8131592 L31.9255165,3.8131592 C30.8751033,3.8131592 30.0232438,2.95937103 30.0232438,1.9065796 C30.0232438,0.853788172 30.8751033,0 31.9255165,0 L55.7071281,0 C56.7575413,0 57.6094008,0.853788172 57.6094008,1.9065796 C57.6094008,2.95937103 56.7575413,3.8131592 55.7071281,3.8131592 Z"></path>
                                </g>
                                <path d="M19.8105372,3.8131592 L42.1926653,3.8131592 C43.2430785,3.8131592 44.094938,2.95937103 44.094938,1.9065796 C44.094938,0.853788172 43.2430785,0 42.1926653,0 L19.8105372,0 C18.760124,0 17.9082645,0.853788172 17.9082645,1.9065796 C17.9082645,2.95937103 18.760124,3.8131592 19.8105372,3.8131592 Z" id="路径"></path>
                            </g>
                        </g>
                    </g>
                </g>
            </g>
        </g>
    </g>
</svg>