<?xml version="1.0" encoding="UTF-8"?>
<svg width="32px" height="32px" viewBox="0 0 32 32" version="1.1" xmlns="http://www.w3.org/2000/svg" xmlns:xlink="http://www.w3.org/1999/xlink">
    <title>亮色系-未点击</title>
    <defs>
        <filter color-interpolation-filters="auto" id="filter-1">
            <feColorMatrix in="SourceGraphic" type="matrix" values="0 0 0 0 0.996078 0 0 0 0 0.701961 0 0 0 0 0.247059 0 0 0 1.000000 0"></feColorMatrix>
        </filter>
    </defs>
    <g id="页面-1" stroke="none" stroke-width="1" fill="none" fill-rule="evenodd">
        <g id="画板" transform="translate(-205.000000, -53.000000)">
            <g id="亮色系-未点击" transform="translate(205.000000, 53.000000)">
                <rect id="矩形备份-19" x="0" y="0" width="32" height="32" rx="8"></rect>
                <g filter="url(#filter-1)" id="亮色系备份-2">
                    <g transform="translate(7.000000, 7.000000)">
                        <path d="M4.17861342,9.08100334 C4.17861342,11.8573129 6.40915459,14.1079565 9.16066656,14.1079565 C11.9121785,14.1079565 14.1427197,11.8573129 14.1427197,9.08100334 C14.1427197,6.30469377 11.9121785,4.05405017 9.16066656,4.05405017 C6.40915459,4.05405017 4.17861342,6.30469377 4.17861342,9.08100334 L4.17861342,9.08100334 Z" id="路径" fill="#F9C626" fill-rule="nonzero"></path>
                        <path d="M9.16152174,2.43247324 L8.67791859,2.43247324 C8.50089675,2.43247324 8.35722685,2.28750854 8.35722685,2.10889131 L8.35722685,0.323581932 C8.35722685,0.144964706 8.50089675,0 8.67791859,0 L9.16152174,0 C9.33854358,0 9.48221349,0.144964706 9.48221349,0.323581932 L9.48221349,2.10889131 C9.48221349,2.28750854 9.33854358,2.43247324 9.16152174,2.43247324 L9.16152174,2.43247324 Z M4.45483591,4.10237174 L4.11276472,4.4475258 C3.98748114,4.57393847 3.78437637,4.57393847 3.65930659,4.4475258 L2.4081812,3.18512482 C2.28289763,3.05871214 2.28289763,2.85377692 2.4081812,2.72757997 L2.7502524,2.38242591 C2.87553597,2.25601323 3.07864074,2.25601323 3.20371052,2.38242591 L4.45483591,3.64482688 C4.58011949,3.77123956 4.58011949,3.97595906 4.45483591,4.10237174 Z M2.41074674,8.75591136 L2.41074674,9.24387292 C2.41074674,9.42249014 2.26707684,9.56745485 2.09005499,9.56745485 L0.320691744,9.56745485 C0.143669901,9.56745485 0,9.42249014 0,9.24387292 L0,8.75591136 C0,8.57729414 0.143669901,8.43232943 0.320691744,8.43232943 L2.09005499,8.43232943 C2.26707684,8.43232943 2.41074674,8.57729414 2.41074674,8.75591136 Z M4.22650339,13.5050155 L4.56857458,13.8501696 C4.69385816,13.9765823 4.69385816,14.1815175 4.56857458,14.3077144 L3.31744919,15.5701154 C3.19216562,15.6965281 2.98906085,15.6965281 2.86399107,15.5701154 L2.52191987,15.2249613 C2.3966363,15.0985487 2.3966363,14.8936135 2.52191987,14.7674165 L3.77304527,13.5050155 C3.89811505,13.3786028 4.10121982,13.3786028 4.22650339,13.5050155 Z M8.83847826,15.5675268 L9.32208141,15.5675268 C9.49910325,15.5675268 9.64277315,15.7124915 9.64277315,15.8911087 L9.64277315,17.6764181 C9.64277315,17.8550353 9.49910325,18 9.32208141,18 L8.83847826,18 C8.66145642,18 8.51778651,17.8550353 8.51778651,17.6764181 L8.51778651,15.8911087 C8.51778651,15.7124915 8.66145642,15.5675268 8.83847826,15.5675268 L8.83847826,15.5675268 Z M13.5451641,13.7354059 L13.8872353,13.3902518 C14.0125189,13.2638391 14.2156236,13.2638391 14.3406934,13.3902518 L15.5918188,14.6526528 C15.7171024,14.7790654 15.7171024,14.9840007 15.5918188,15.1101976 L15.2497476,15.4553517 C15.124464,15.5817644 14.9213593,15.5817644 14.7962895,15.4553517 L13.5451641,14.1929507 C13.4198805,14.0667538 13.4198805,13.8618185 13.5451641,13.7354059 Z M15.5892533,9.08186623 L15.5892533,8.59390468 C15.5892533,8.41528745 15.7329232,8.27032274 15.909945,8.27032274 L17.6793083,8.27032274 C17.8563301,8.27032274 18,8.41528745 18,8.59390468 L18,9.08186623 C18,9.26048346 17.8563301,9.40544816 17.6793083,9.40544816 L15.909945,9.40544816 C15.7329232,9.40544816 15.5892533,9.26048346 15.5892533,9.08186623 Z M13.7734966,4.33276207 L13.4314254,3.98760801 C13.3061418,3.86119534 13.3061418,3.65626011 13.4314254,3.53006316 L14.6825508,2.26766218 C14.8078344,2.14124951 15.0109392,2.14124951 15.1360089,2.26766218 L15.4780801,2.61281624 C15.6033637,2.73922892 15.6033637,2.94416414 15.4780801,3.07036109 L14.2269547,4.33276207 C14.1016712,4.45917475 13.8987802,4.45917475 13.7734966,4.33276207 Z" id="形状" fill="#F9C626" fill-rule="nonzero"></path>
                    </g>
                </g>
            </g>
        </g>
    </g>
</svg>