<?xml version="1.0" encoding="UTF-8"?>
<svg width="82px" height="82px" viewBox="0 0 82 82" version="1.1" xmlns="http://www.w3.org/2000/svg" xmlns:xlink="http://www.w3.org/1999/xlink">
    <title>智旅链_logo备份 3</title>
    <defs>
        <linearGradient x1="50%" y1="0%" x2="50%" y2="100%" id="linearGradient-1">
            <stop stop-color="#33ADFF" offset="0%"></stop>
            <stop stop-color="#9D57FF" offset="100%"></stop>
        </linearGradient>
    </defs>
    <g id="页面-1" stroke="none" stroke-width="1" fill="none" fill-rule="evenodd">
        <g id="首页-暗色" transform="translate(-1424.000000, -3434.000000)">
            <g id="智旅链_logo备份-3" transform="translate(1424.000000, 3434.000000)">
                <rect id="矩形备份-27" x="0" y="0" width="82" height="82"></rect>
                <g id="logo/车无忌_横正_紫" transform="translate(9.014184, 8.723404)">
                    <rect id="矩形" fill="#FFFFFF" x="1.74468085" y="8.72340426" width="60.1914894" height="51.4680851"></rect>
                    <path d="M58.4468085,0 C61.8192707,0 64.5531915,2.73392078 64.5531915,6.10638298 L64.5531915,58.4468085 C64.5531915,61.8192707 61.8192707,64.5531915 58.4468085,64.5531915 L6.10638298,64.5531915 C2.73392078,64.5531915 0,61.8192707 0,58.4468085 L0,6.10638298 C0,2.73392078 2.73392078,0 6.10638298,0 L58.4468085,0 Z M27.0425532,13.9574468 C19.8158485,13.9574468 13.9574468,19.8158485 13.9574468,27.0425532 C13.9574468,28.7818656 14.2978942,30.4767142 14.9509477,32.0516189 C14.9703322,32.0983666 14.9956224,32.1541795 15.0268514,32.2191151 L15.0972373,32.361167 C15.8674209,33.8779541 18.9430631,38.9380256 24.574886,47.9787234 L24.574886,47.9787234 L13.9574468,47.9787234 C10.5849846,47.9787234 7.85106383,45.2448026 7.85106383,41.8723404 C7.85106383,38.6220747 10.3904542,35.9649154 13.593472,35.7766257 C12.9506989,34.7505226 12.4300162,33.6401358 12.0517777,32.4658193 C7.66510437,33.3496879 4.36170213,37.2252387 4.36170213,41.8723404 C4.36170213,47.1719239 8.65786336,51.4680851 13.9574468,51.4680851 L13.9574468,51.4680851 L50.5957447,51.4680851 C55.8953281,51.4680851 60.1914894,47.1719239 60.1914894,41.8723404 C60.1914894,36.8701902 56.3640302,32.7619909 51.4779801,32.3166109 C49.9968614,29.1533328 46.7942324,27.0425532 43.1808511,27.0425532 C40.283705,27.0425532 37.612109,28.3992571 35.8958295,30.6492612 C37.2477921,30.8197908 38.5430603,31.1723307 39.7563144,31.6815613 C40.7232019,30.9479263 41.9163695,30.5319149 43.1808511,30.5319149 C45.6883218,30.5319149 47.8771991,32.174539 48.6021143,34.5337245 L48.6021143,34.5337245 L48.9807469,35.7659574 L50.5957447,35.7659574 C53.9682069,35.7659574 56.7021277,38.4998782 56.7021277,41.8723404 C56.7021277,45.2448026 53.9682069,47.9787234 50.5957447,47.9787234 L50.5957447,47.9787234 L28.6869042,47.9787209 C22.1257295,37.4634318 18.4942504,31.4869317 18.174186,30.7150638 C17.6960615,29.562018 17.4468085,28.3211623 17.4468085,27.0425532 C17.4468085,21.7429697 21.7429697,17.4468085 27.0425532,17.4468085 C31.8012496,17.4468085 35.7508944,20.9107703 36.5075432,25.4547497 C37.5117517,24.8298898 38.6099438,24.3418555 39.7760525,24.0167137 C38.4106112,18.2489033 33.2277439,13.9574468 27.0425532,13.9574468 Z M27.0425532,22.6808511 C24.1518713,22.6808511 21.8085106,25.0242117 21.8085106,27.9148936 C21.8085106,30.8055755 24.1518713,33.1489362 27.0425532,33.1489362 C29.9332351,33.1489362 32.2765957,30.8055755 32.2765957,27.9148936 C32.2765957,25.0242117 29.9332351,22.6808511 27.0425532,22.6808511 Z M27.0425532,25.2978723 C28.4878941,25.2978723 29.6595745,26.4695527 29.6595745,27.9148936 C29.6595745,29.3602346 28.4878941,30.5319149 27.0425532,30.5319149 C25.5972123,30.5319149 24.4255319,29.3602346 24.4255319,27.9148936 C24.4255319,26.4695527 25.5972123,25.2978723 27.0425532,25.2978723 Z" id="Combined-Shape" fill="url(#linearGradient-1)"></path>
                </g>
            </g>
        </g>
    </g>
</svg>