<?xml version="1.0" encoding="UTF-8"?>
<svg width="40px" height="41px" viewBox="0 0 40 41" version="1.1" xmlns="http://www.w3.org/2000/svg" xmlns:xlink="http://www.w3.org/1999/xlink">
    <title>编组 3备份</title>
    <defs>
        <rect id="path-1" x="0" y="0" width="40" height="40"></rect>
    </defs>
    <g id="页面-1" stroke="none" stroke-width="1" fill="none" fill-rule="evenodd">
        <g id="首页-亮色" transform="translate(-360.000000, -13.000000)">
            <g id="编组-3备份" transform="translate(360.000000, 13.500000)">
                <mask id="mask-2" fill="white">
                    <use xlink:href="#path-1"></use>
                </mask>
                <g id="蒙版"></g>
                <g mask="url(#mask-2)">
                    <g transform="translate(0.000000, 1.000000)">
                        <path d="M20.0426212,0 L10.8542,8.96709914 L10.9412183,9.05467894 L13.9051678,11.9465997 L24.1946368,21.9914666 L27.0236193,19.2300219 L16.7323744,9.18872966 L19.8916711,6.10198853 L26.1196945,12.1789543 L29.3180607,9.05467894 L23.0935891,2.97771321 L20.1296395,0.0857924574 L20.0426212,0 Z M27.6149885,13.637426 L33.7488901,19.6285993 L27.7641627,25.4732105 L30.8151305,28.4509237 L40,19.4838245 L30.8151305,10.5131507 L27.6149885,13.637426 Z" id="Fill-1" fill="#6C77E3"></path>
                        <path d="M2.82898242,16.7600928 L0,19.5197501 L3.05096786,22.4992507 L9.10317883,28.4010568 L11.9268336,25.6431868 L5.87995028,19.737806 L12.241165,13.5321515 L9.18842124,10.5508637 L2.82898242,16.7600928 Z M12.7028947,20.2275379 L22.8946901,30.1776756 L19.7353934,33.2626294 L13.59794,27.2732435 L10.7707334,30.0346882 L16.9081868,36.0240741 L19.9609306,39 L29.1475759,30.0346882 L26.0966081,27.056975 L15.9048126,17.1068373 L12.7028947,20.2275379 Z" id="Fill-2" fill="#42D992"></path>
                    </g>
                </g>
            </g>
        </g>
    </g>
</svg>