<?xml version="1.0" encoding="UTF-8"?>
<svg width="124px" height="125px" viewBox="0 0 124 125" version="1.1" xmlns="http://www.w3.org/2000/svg" xmlns:xlink="http://www.w3.org/1999/xlink">
    <title>访问策略</title>
    <defs>
        <linearGradient x1="50%" y1="50%" x2="50%" y2="73.8516328%" id="linearGradient-1">
            <stop stop-color="#9FB4FF" stop-opacity="0.28217193" offset="0%"></stop>
            <stop stop-color="#7391FF" offset="100%"></stop>
        </linearGradient>
        <linearGradient x1="50%" y1="0%" x2="50%" y2="100%" id="linearGradient-2">
            <stop stop-color="#3A65F2" offset="0%"></stop>
            <stop stop-color="#3D7FFF" offset="100%"></stop>
        </linearGradient>
        <linearGradient x1="50%" y1="93.2582835%" x2="50%" y2="25.4647456%" id="linearGradient-3">
            <stop stop-color="#EFF5FF" offset="0%"></stop>
            <stop stop-color="#A2BFF4" offset="100%"></stop>
        </linearGradient>
        <polygon id="path-4" points="0 27.0351942 48.0081012 0 92.6999518 27.0351942 46.3499759 55.2561404"></polygon>
        <linearGradient x1="50%" y1="71.9652941%" x2="53.7824607%" y2="13.5335097%" id="linearGradient-6">
            <stop stop-color="#A2BFF4" offset="0%"></stop>
            <stop stop-color="#EFF5FF" offset="100%"></stop>
        </linearGradient>
        <filter x="-17.6%" y="-30.0%" width="135.3%" height="159.9%" filterUnits="objectBoundingBox" id="filter-7">
            <feGaussianBlur stdDeviation="2.73684211" in="SourceGraphic"></feGaussianBlur>
        </filter>
        <filter x="-22.9%" y="-22.9%" width="145.8%" height="145.8%" filterUnits="objectBoundingBox" id="filter-8">
            <feGaussianBlur stdDeviation="4.84960047" in="SourceGraphic"></feGaussianBlur>
        </filter>
        <linearGradient x1="96.1742576%" y1="73.7822601%" x2="0%" y2="28.7484155%" id="linearGradient-9">
            <stop stop-color="#D9E7FC" offset="0%"></stop>
            <stop stop-color="#3963F1" offset="100%"></stop>
        </linearGradient>
        <linearGradient x1="0%" y1="79.5351992%" x2="88.0415583%" y2="37.3128443%" id="linearGradient-10">
            <stop stop-color="#D9E7FC" offset="0%"></stop>
            <stop stop-color="#3963F1" offset="100%"></stop>
        </linearGradient>
        <linearGradient x1="79.8330556%" y1="23.1488804%" x2="0%" y2="89.4038065%" id="linearGradient-11">
            <stop stop-color="#6086FF" offset="0%"></stop>
            <stop stop-color="#AFC2FF" offset="24.8857802%"></stop>
            <stop stop-color="#2553EA" offset="100%"></stop>
        </linearGradient>
        <linearGradient x1="57.3020265%" y1="2.1558718%" x2="0%" y2="84.7895914%" id="linearGradient-12">
            <stop stop-color="#FFFFFF" stop-opacity="0.582383803" offset="0%"></stop>
            <stop stop-color="#3D7FFF" stop-opacity="0" offset="100%"></stop>
        </linearGradient>
        <linearGradient x1="63.5017124%" y1="50%" x2="33.8326589%" y2="129.942929%" id="linearGradient-13">
            <stop stop-color="#A2B8FF" offset="0%"></stop>
            <stop stop-color="#537AFF" offset="54.5105407%"></stop>
            <stop stop-color="#436CF9" offset="100%"></stop>
        </linearGradient>
        <linearGradient x1="74.4423369%" y1="15.436422%" x2="0.41987573%" y2="111.115826%" id="linearGradient-14">
            <stop stop-color="#FFFFFF" stop-opacity="0.632219221" offset="0%"></stop>
            <stop stop-color="#98AFFE" stop-opacity="0.542806559" offset="100%"></stop>
        </linearGradient>
        <linearGradient x1="50%" y1="0%" x2="50%" y2="100%" id="linearGradient-15">
            <stop stop-color="#9CBCFA" stop-opacity="0" offset="0%"></stop>
            <stop stop-color="#92ABFF" offset="100%"></stop>
        </linearGradient>
    </defs>
    <g id="页面-1" stroke="none" stroke-width="1" fill="none" fill-rule="evenodd">
        <g id="首页-亮色" transform="translate(-996.000000, -1048.000000)">
            <g id="访问策略" transform="translate(996.000000, 1048.002752)">
                <rect id="矩形备份-4" x="0" y="0" width="124" height="124"></rect>
                <g id="编组-3" transform="translate(8.484211, 0.000000)">
                    <g id="编组-3备份-3">
                        <polygon id="蒙版" stroke="url(#linearGradient-1)" stroke-width="0.970658734" points="4.35087719 94.4634572 55.4999426 65.6982456 103.115789 94.4634572 53.7333333 124"></polygon>
                        <g id="编组-11备份-3">
                            <polygon id="多边形" fill="url(#linearGradient-2)" opacity="0.200000003" points="53.5157895 0 99.8618227 26.7578947 99.8618227 80.2736842 53.5157895 107.031579 7.16975629 80.2736842 7.16975629 26.7578947"></polygon>
                            <g id="编组" transform="translate(7.396491, 53.515789)">
                                <g id="椭圆形">
                                    <mask id="mask-5" fill="white">
                                        <use xlink:href="#path-4"></use>
                                    </mask>
                                    <use id="蒙版" fill="url(#linearGradient-3)" xlink:href="#path-4"></use>
                                    <polygon id="矩形" fill="url(#linearGradient-6)" filter="url(#filter-7)" mask="url(#mask-5)" points="23.0596491 27.4467498 47.169561 13.922807 69.6140351 27.4467498 46.3368421 41.3333333"></polygon>
                                    <circle fill-opacity="0.345824342" fill="#4870F2" filter="url(#filter-8)" mask="url(#mask-5)" cx="46.554386" cy="-3.91578947" r="31.7614035"></circle>
                                </g>
                                <polygon id="矩形" fill="url(#linearGradient-9)" points="0 27.0351942 46.3499759 54.7953297 46.554386 62.65852 0 35.125581"></polygon>
                                <polygon id="矩形" fill="url(#linearGradient-10)" points="46.3499759 54.7953297 92.6999518 27.0351942 92.6999518 35.4716202 46.554386 62.65852"></polygon>
                            </g>
                        </g>
                    </g>
                    <g id="编组-13备份-2" transform="translate(53.357912, 50.727139) rotate(2.000000) translate(-53.357912, -50.727139) translate(18.714892, 10.436487)">
                        <g id="编组-12" opacity="0.553195772" transform="translate(0.000000, 49.345795)">
                            <polygon id="路径-29" stroke="#557AF3" stroke-width="1.78619483" opacity="0.600000024" points="2.83959178 14.7658773 41.0243367 28.3959178 66.4087344 16.4696323 30.0996729 2.87974762"></polygon>
                            <circle id="椭圆形" fill="#4C74FD" cx="39.7542849" cy="28.3959178" r="2.83959178"></circle>
                            <circle id="椭圆形备份-3" fill="#4C74FD" cx="2.83959178" cy="15.901714" r="2.83959178"></circle>
                            <circle id="椭圆形备份-4" fill="#4C74FD" cx="28.9638362" cy="2.83959178" r="2.83959178"></circle>
                            <circle id="椭圆形备份-5" fill="#4C74FD" cx="66.4464477" cy="15.901714" r="2.83959178"></circle>
                        </g>
                        <g id="编组-12" transform="translate(0.000000, 40.259101)">
                            <polygon id="路径-29" stroke="#FFFFFF" stroke-width="1.78619483" points="2.83959178 14.7658773 41.0243367 28.3959178 66.4087344 16.4696323 30.0996729 2.87974762"></polygon>
                            <circle id="椭圆形" fill="#FFFFFF" cx="39.7542849" cy="28.3959178" r="2.83959178"></circle>
                            <circle id="椭圆形备份-3" fill="#FFFFFF" cx="2.83959178" cy="15.901714" r="2.83959178"></circle>
                            <circle id="椭圆形备份-4" fill="#FFFFFF" cx="28.9638362" cy="2.83959178" r="2.83959178"></circle>
                            <circle id="椭圆形备份-5" fill="#FFFFFF" cx="66.4464477" cy="15.901714" r="2.83959178"></circle>
                        </g>
                        <path d="M44.0136726,31.1724076 L66.4087344,38.7816262 L27.4902023,69.4954353 C27.2320732,69.6991461 26.8576779,69.6550314 26.653967,69.3969023 C26.5416219,69.254546 26.5002798,69.068749 26.5416616,68.8921866 L32.4512098,43.6780845 L32.4512098,43.6780845 L44.0136726,31.1724076 Z" id="路径-28" stroke="url(#linearGradient-12)" stroke-width="0.541271161" fill="url(#linearGradient-11)"></path>
                        <line x1="4.25938767" y1="55.896934" x2="39.7542849" y2="68.6550191" id="路径-30" stroke="#FFFFFF" stroke-width="2.38159311"></line>
                        <path d="M10.7904488,31.1724076 L31.2488202,38.7816262 L48.315137,2.33577162 C48.4545849,2.03797463 48.3262176,1.68351761 48.0284206,1.54406971 C47.822259,1.44753144 47.5790959,1.47699628 47.401958,1.61998019 L10.7904488,31.1724076 L10.7904488,31.1724076 Z" id="路径-27" stroke="url(#linearGradient-14)" stroke-width="0.541271161" fill="url(#linearGradient-13)"></path>
                    </g>
                    <path d="M33.050703,32.2419594 C18.0993764,34.5069171 7.83157895,39.192567 7.83157895,44.6054678 C7.83157895,52.2335932 28.2232492,58.4174106 53.3776492,58.4174106 C78.5320491,58.4174106 98.9237194,52.2335932 98.9237194,44.6054678 C98.9237194,38.7746415 87.009177,33.7877023 70.1602685,31.7614035" id="路径" stroke="url(#linearGradient-15)" stroke-width="1.8245614" stroke-linecap="round" stroke-linejoin="round"></path>
                </g>
            </g>
        </g>
    </g>
</svg>