<?xml version="1.0" encoding="UTF-8"?>
<svg width="82px" height="82px" viewBox="0 0 82 82" version="1.1" xmlns="http://www.w3.org/2000/svg" xmlns:xlink="http://www.w3.org/1999/xlink">
    <title>智旅链_logo备份 4</title>
    <defs>
        <linearGradient x1="50%" y1="0%" x2="50%" y2="100%" id="linearGradient-1">
            <stop stop-color="#0092FF" offset="0%"></stop>
            <stop stop-color="#24D37E" offset="100%"></stop>
        </linearGradient>
    </defs>
    <g id="页面-1" stroke="none" stroke-width="1" fill="none" fill-rule="evenodd">
        <g id="首页-暗色" transform="translate(-1020.000000, -3602.000000)">
            <g id="智旅链_logo备份-4" transform="translate(1020.000000, 3602.000000)">
                <rect id="矩形备份-27" x="0" y="0" width="82" height="82"></rect>
                <rect id="矩形" fill="#FFFFFF" x="13.0851064" y="20.0638298" width="47.106383" height="43.6170213"></rect>
                <path d="M45.0510933,30.4409903 C43.8784389,32.1163327 42.4147547,33.7054756 40.6574801,35.2118328 L49.6964772,35.2118328 C48.1901199,34.0408854 46.6402362,32.4500356 45.0510933,30.4409903 Z M72.6087541,31.7406739 C73.4151505,31.0214754 73.8968916,30.7598243 74.6021264,29.4675489 C75.3073613,28.1752734 75.2943093,27.4069837 75.2943093,26.1511392 C75.2943093,24.875391 75.2943093,22.9617688 75.2943093,20.4102724 C75.2943093,15.8655968 71.6235769,12.160726 67.0447629,12.160726 L14.9222409,12.160726 C10.3775653,12.160726 6.6726945,15.8314584 6.6726945,20.4102724 C6.6726945,23.1410547 6.6726945,25.1891414 6.6726945,26.5545325 C6.6726945,27.6875765 6.6726945,28.3178363 7.23511144,29.4675489 C7.79752839,30.6172615 8.71254126,31.1632934 9.5749972,31.9622604 C12.0018448,34.2104579 13.5242731,37.4152158 13.5242731,41 C13.5242731,44.3513736 12.1936456,47.3705978 10.0373707,49.5865822 C9.06752485,50.5832842 8.35156909,50.9141539 7.47910605,52.2343501 C6.60664301,53.5545464 6.6726945,54.4982467 6.6726945,55.7242023 C6.6726945,57.0276523 6.6726945,58.9828275 6.6726945,61.5897276 C6.6726945,66.1344032 10.3434269,69.839274 14.9222409,69.839274 C28.4393674,69.839274 38.5772123,69.839274 45.3357756,69.839274 C50.1675813,69.839274 57.4152899,69.839274 67.0789013,69.839274 C71.6235769,69.839274 75.3284477,66.1685416 75.3284477,61.5897276 C75.3284477,59.0666918 75.3284477,57.1744149 75.3284477,55.912897 C75.3284477,54.6243277 75.0931161,53.3408044 74.3898449,52.2343501 C73.6865736,51.1278959 73.0707615,50.6830485 72.1405037,49.7645002 C69.8810614,47.5334984 68.4777226,44.4423272 68.4777226,41 C68.4777226,37.3114634 70.0688264,34.0059521 72.6087541,31.7406739 Z M54.7182371,54.1688911 L35.1338856,54.1688911 L35.1338856,50.0261952 L47.437368,50.0261952 C47.8555635,48.5198379 48.4828568,46.1344166 49.3209547,42.8699313 C49.571872,41.6989839 49.7801163,40.8199199 49.948248,40.2335927 L54.3418611,41.2381154 C53.1692068,44.9216497 52.2491767,47.8507251 51.5800639,50.0261952 L54.7182371,50.0261952 L54.7182371,54.1688911 L54.7182371,54.1688911 Z M42.5402133,41.8654087 C42.4557208,41.363574 42.3712282,40.9863446 42.289296,40.7354273 L46.4319919,40.1081341 C46.6829092,41.2807884 47.0166121,42.9134578 47.4365146,45.0044353 C47.6874319,46.2598753 47.8547101,47.2234319 47.9383492,47.8916912 L43.7956533,48.5198379 C43.544736,46.930695 43.1248336,44.7116985 42.5402133,41.8654087 L42.5402133,41.8654087 Z M54.7182371,36.4672728 C54.4673198,37.1380925 54.2983347,37.6399271 54.2164025,37.9736301 C53.9654852,37.8072054 53.5882558,37.5972541 53.0864212,37.3463368 C52.5845866,37.0126339 52.2073571,36.8026827 51.9564398,36.7190436 L51.9564398,39.3553822 L38.5229761,39.3553822 L38.5229761,36.7181901 C37.7693708,37.3045173 37.0166188,37.8481714 36.2630135,38.350006 C36.0940284,38.0990887 35.8866375,37.6808932 35.6357202,37.0945661 C35.3003104,36.174536 35.008427,35.5054232 34.7566562,35.0855207 L33.2502989,35.0855207 L33.2502989,37.847318 C33.3330846,37.9318105 33.5012162,38.0572692 33.7521335,38.2236939 C35.0903591,39.3127092 36.0940284,40.0654611 36.7648481,40.4836566 L36.3884721,41.3627206 L40.0293334,40.4836566 C40.8648709,43.1635216 41.6611493,45.8817924 42.4147547,48.6435897 L38.2720588,49.773571 C37.6012391,47.0117737 36.8911602,44.3754351 36.1375548,41.8645552 L34.6311976,44.8772697 C34.1298245,44.4599629 33.6676058,43.9977442 33.2502989,43.4963711 L33.2502989,55.2971655 L28.604915,55.2971655 L28.604915,43.9999126 C27.8513096,45.7571872 26.5975766,48.2982516 25.5930539,50.0555262 C25.5085614,49.6373307 25.4240688,48.9255449 25.3421366,47.9210222 C25.0067268,45.6610596 24.7967755,44.0292437 24.7148434,43.024721 C26.053069,40.5983336 27.5577193,37.4299759 28.4803098,35.0855207 L25.5930539,35.0855207 L25.5930539,30.692761 L28.6057685,30.692761 L28.6057685,25.2946252 L33.2511524,25.2946252 L33.2511524,30.692761 L35.7620323,30.692761 L35.7620323,32.9527237 C39.1084498,30.8617462 41.4938711,28.2254076 42.9182962,25.0437079 L48.0655147,25.4200838 C47.9810222,25.5045764 47.8965296,25.7145276 47.8145974,26.0473771 C47.6456123,26.2982944 47.5201537,26.5082456 47.4382215,26.6746704 C49.6136916,29.5209602 52.4164549,31.7809228 55.8499253,33.4537048 C55.5973011,34.125378 55.2200717,35.1299007 54.7182371,36.4672728 Z" id="形状备份" fill="url(#linearGradient-1)"></path>
            </g>
        </g>
    </g>
</svg>