<svg xmlns="http://www.w3.org/2000/svg" xmlns:xlink="http://www.w3.org/1999/xlink" width="13.985" height="14" viewBox="0 0 13.985 14"><defs><style>.a{fill:#2c81e5;}.b{clip-path:url(#a);}</style><clipPath id="a"><rect class="a" width="13.985" height="14"/></clipPath></defs><g transform="translate(-550 -130)"><g transform="translate(550 130)"><g class="b" transform="translate(0 0)"><path class="a" d="M556.867,130.52a6.987,6.987,0,1,0,6.987,6.987,6.987,6.987,0,0,0-6.987-6.987Zm4.208,5.033-4.835,4.939a.48.48,0,0,1-.743.07l-2.4-2.438a.5.5,0,0,1,0-.7.479.479,0,0,1,.686,0l2.051,2.083,4.555-4.654a.48.48,0,0,1,.686,0,.5.5,0,0,1,0,.7Zm0,0" transform="translate(-549.882 -130.511)"/></g></g></g></svg>