<?xml version="1.0" encoding="UTF-8"?>
<svg width="36px" height="36px" viewBox="0 0 36 36" version="1.1" xmlns="http://www.w3.org/2000/svg" xmlns:xlink="http://www.w3.org/1999/xlink">
    <title>区块高度icon</title>
    <g id="页面-1" stroke="none" stroke-width="1" fill="none" fill-rule="evenodd">
        <g id="首页" transform="translate(-380.000000, -416.000000)" fill-rule="nonzero">
            <g id="编组-10" transform="translate(360.000000, 392.000000)">
                <g id="区块高度icon" transform="translate(20.000000, 24.000000)">
                    <path d="M0,18 C0,27.9411255 8.0588745,36 18,36 C27.9411255,36 36,27.9411255 36,18 C36,8.0588745 27.9411255,0 18,0 C8.0588745,0 0,8.0588745 0,18 Z" id="路径" fill="#EFF4FF"></path>
                    <path d="M18,9.99999608 C17.895,9.99999608 17.792,10.0255 17.7,10.0755 L10.8265,13.825 C10.6251326,13.9343429 10.4997439,14.1451109 10.4997439,14.37425 C10.4997439,14.6033891 10.6251326,14.8141571 10.8265,14.9235 L13.255,16.2485 L10.8265,17.574 C10.6251326,17.6833429 10.4997439,17.894111 10.4997439,18.12325 C10.4997439,18.3523891 10.6251326,18.5631571 10.8265,18.6725 L13.255,19.9975 L10.8265,21.323 C10.6251326,21.4323429 10.4997439,21.6431109 10.4997439,21.87225 C10.4997439,22.1013891 10.6251326,22.3121571 10.8265,22.4215 L17.7,26.17 C17.8869245,26.2722762 18.1130755,26.2722762 18.3,26.17 L25.1735,22.421 C25.3748674,22.3116571 25.5002561,22.1008891 25.5002561,21.87175 C25.5002561,21.642611 25.3748674,21.4318429 25.1735,21.3225 L22.745,19.9975 L25.1735,18.672 C25.3748674,18.5626571 25.5002561,18.3518891 25.5002561,18.12275 C25.5002561,17.8936109 25.3748674,17.6828429 25.1735,17.5735 L22.745,16.2485 L25.1735,14.923 C25.3748674,14.8136571 25.5002561,14.602889 25.5002561,14.37375 C25.5002561,14.1446109 25.3748674,13.9338429 25.1735,13.8245 L18.3,10.0755 C18.2079067,10.0255916 18.1047468,9.99962965 18,9.99999608 Z M18,11.3375 L23.5675,14.374 L21.1365,15.699 L18,17.41 L12.4325,14.374 L18,11.3375 Z M14.5635,16.961 L17.7,18.672 C17.8869245,18.7742763 18.1130755,18.7742763 18.3,18.672 L21.4365,16.961 L23.5675,18.1225 L21.139,19.448 L18,21.159 L14.8565,19.4455 L12.4325,18.1225 L14.5635,16.961 L14.5635,16.961 Z M14.5635,20.71 L17.7,22.421 C17.8869245,22.5232763 18.1130755,22.5232763 18.3,22.421 L21.4365,20.71 L23.5675,21.8715 L18,24.908 L12.4325,21.8715 L14.5635,20.71 L14.5635,20.71 Z" id="形状" fill="#3D5695"></path>
                </g>
            </g>
        </g>
    </g>
</svg>