<?xml version="1.0" encoding="UTF-8"?>
<svg width="24px" height="24px" viewBox="0 0 24 24" version="1.1" xmlns="http://www.w3.org/2000/svg" xmlns:xlink="http://www.w3.org/1999/xlink">
    <title>链码数icon</title>
    <g id="页面-1" stroke="none" stroke-width="1" fill="none" fill-rule="evenodd">
        <g id="首页" transform="translate(-792.000000, -634.000000)" fill-rule="nonzero">
            <g id="链码数icon" transform="translate(792.000000, 634.000000)">
                <path d="M12,0 C5.35384615,0 0,5.35384615 0,12 C0,18.6461539 5.35384615,24 12,24 C18.6461539,24 24,18.6461539 24,12 C24,5.35384615 18.6461539,0 12,0 Z" id="形状" fill="#4477FF"></path>
                <path d="M18,17.5384615 C18,17.8153846 17.8153846,18 17.5384615,18 L14.4923077,18 C14.2153846,18 14.0307692,17.8153846 14.0307692,17.5384615 L14.0307692,14.5846154 C14.0307692,14.3076923 14.2153846,14.1230769 14.4923077,14.1230769 L15.6,14.1230769 L15.6,12.3692308 L8.4,12.3692308 L8.4,14.1230769 L9.41538462,14.1230769 C9.6923077,14.1230769 9.87692309,14.3076923 9.87692306,14.5846154 L9.87692306,17.5384615 C9.87692306,17.6307692 9.78461536,17.8153846 9.78461538,17.9076923 C9.78461541,18 9.6,18 9.5076923,18 L6.46153845,18 C6.18461536,18 6,17.8153846 6,17.5384615 L6,14.5846154 C6,14.3076923 6.18461538,14.1230769 6.46153845,14.1230769 L7.56923077,14.1230769 L7.56923077,12 C7.56923077,11.8153846 7.75384615,11.6307692 8.03076923,11.6307692 L11.5384615,11.6307692 L11.5384615,9.96923077 L10.4307692,9.96923077 C10.1538461,9.96923077 9.96923077,9.78461538 9.96923077,9.5076923 L9.96923077,6.46153845 C9.96923077,6.18461536 10.1538461,6 10.4307692,6 L13.4769231,6 C13.7538461,6 13.9384615,6.18461538 13.9384615,6.46153845 L13.9384615,9.41538462 C13.9384615,9.6923077 13.7538461,9.87692309 13.4769231,9.87692306 L12.4615384,9.87692306 L12.4615384,11.5384615 L15.9692308,11.5384615 C16.2461539,11.5384615 16.4307692,11.7230769 16.4307692,11.9076923 L16.4307692,14.0307692 L17.5384615,14.0307692 C17.8153846,14.0307692 18,14.2153846 18,14.4923077 L18,17.5384615 L18,17.5384615 Z" id="路径" fill="#FFFFFF"></path>
            </g>
        </g>
    </g>
</svg>