<?xml version="1.0" encoding="UTF-8"?>
<svg width="338px" height="63px" viewBox="0 0 338 63" version="1.1" xmlns="http://www.w3.org/2000/svg" xmlns:xlink="http://www.w3.org/1999/xlink">
    <title>折线图1</title>
    <defs>
        <linearGradient x1="50%" y1="0%" x2="50%" y2="103.628162%" id="linearGradient-1">
            <stop stop-color="#79AFFF" stop-opacity="0.704818619" offset="0%"></stop>
            <stop stop-color="#4477FF" stop-opacity="0" offset="100%"></stop>
        </linearGradient>
    </defs>
    <g id="页面-1" stroke="none" stroke-width="1" fill="none" fill-rule="evenodd">
        <g id="首页" transform="translate(-383.000000, -706.000000)">
            <g id="折线图1" transform="translate(384.000000, 708.000000)">
                <path d="M0,39.7508515 L22.317382,45.8098902 L34.2607097,41.1255834 L46.6095206,39.7508515 L56.9344255,21.4422228 L68.4670038,41.1255834 L80.7719313,41.1255834 L91.5953525,49.3361297 L114.958917,33.955784 L126.630167,36.805538 L138.828019,27.7538791 L149.812931,41.1255834 L162.604087,36.805538 L174.570234,36.805538 L185.823714,21.4422228 L197.860074,32.3596569 L207.089648,21.4422228 L219.017177,18.551785 L231.380031,0 L242.292974,29.624385 L254.202951,29.624385 L267.101183,24.6680648 L277.787688,29.624385 L288.812973,36.805538 C304.044636,24.6975527 311.660467,17.6516967 311.660467,15.6679702 C311.660467,13.6842437 315.949346,18.336382 324.527103,29.624385 L336,60" id="路径-8" stroke="#4477FF"></path>
                <path d="M0,39.7508515 L22.317382,45.8098902 L34.2607097,41.1255834 L46.6095206,39.7508515 L56.9344255,21.4422228 L68.4670038,41.1255834 L80.7719313,41.1255834 L91.5953525,49.3361297 L114.958917,33.955784 L126.630167,36.805538 L138.828019,27.7538791 L149.812931,41.1255834 L162.604087,36.805538 L174.570234,36.805538 L185.823714,21.4422228 L197.860074,32.3596569 L207.089648,21.4422228 L219.017177,18.551785 L231.380031,0 L242.292974,29.624385 L254.202951,29.624385 L267.101183,24.6680648 L277.787688,29.624385 L288.812973,36.805538 C304.044636,24.6975527 311.660467,17.6516967 311.660467,15.6679702 C311.660467,13.6842437 315.949346,18.336382 324.527103,29.624385 L336,60 L0,60" id="路径-8" fill="url(#linearGradient-1)"></path>
            </g>
        </g>
    </g>
</svg>