<?xml version="1.0" encoding="UTF-8"?>
<svg width="337px" height="61px" viewBox="0 0 337 61" version="1.1" xmlns="http://www.w3.org/2000/svg" xmlns:xlink="http://www.w3.org/1999/xlink">
    <title>折线图2</title>
    <defs>
        <linearGradient x1="50%" y1="0%" x2="50%" y2="103.628162%" id="linearGradient-1">
            <stop stop-color="#79AFFF" stop-opacity="0.703562063" offset="0%"></stop>
            <stop stop-color="#4477FF" stop-opacity="0" offset="100%"></stop>
        </linearGradient>
    </defs>
    <g id="页面-1" stroke="none" stroke-width="1" fill="none" fill-rule="evenodd">
        <g id="首页" transform="translate(-792.000000, -707.000000)">
            <g id="折线图2" transform="translate(792.000000, 708.000000)">
                <polyline id="路径-11" stroke="#4477FF" points="1 54.2387479 12.4425845 56.0504737 35.369349 56.0504737 50.1168968 52.5423228 61.7996015 54.2387479 69.7462609 54.2963983 82.5444853 49.4773278 94.5864253 49.4773278 104.334932 52.5423228 115.949572 47.7237537 127.010232 47.7237537 140.594993 23.9677868 151.995982 46.2940243 161.638609 49.4773278 176.284058 52.5423228 185.917232 5.79137397 197.594265 49.4773278 209.62297 3.24372849 222.09221 0 233.067789 51.0965515 244.697554 51.0965515 255.835734 29.5 267.737761 47.7237537 279.388324 31.0392325 292.086341 52.5423228 301.192006 15.3192272 314.01481 1.71975324 325.706968 56.0504737 336 59"></polyline>
                <polyline id="路径-11" fill="url(#linearGradient-1)" points="0.670781413 53.9757587 12.124611 55.7786999 35.0739066 55.7786999 49.8359474 52.2875591 61.5301333 53.9757587 69.4846022 54.0331295 82.2954039 49.2374255 94.349178 49.2374255 104.107265 52.2875591 115.733319 47.4923539 126.804849 47.4923539 140.40296 23.8515733 151.815153 46.0695569 161.467257 49.2374255 176.127099 52.2875591 185.769739 5.76329314 197.458248 49.2374255 209.498774 3.22800052 221.980268 0 232.966633 50.848798 244.607827 50.848798 255.756953 29.3569624 267.670677 47.4923539 279.332689 30.8887315 292.043185 52.2875591 301.157799 15.2449483 313.993204 1.71141461 325.696853 55.7786999 336 58.7139247 0 60"></polyline>
            </g>
        </g>
    </g>
</svg>