<?xml version="1.0" encoding="UTF-8"?>
<svg width="338px" height="63px" viewBox="0 0 338 63" version="1.1" xmlns="http://www.w3.org/2000/svg" xmlns:xlink="http://www.w3.org/1999/xlink">
    <title>折线图3</title>
    <defs>
        <linearGradient x1="50%" y1="0%" x2="50%" y2="103.628162%" id="linearGradient-1">
            <stop stop-color="#79AFFF" stop-opacity="0.703562063" offset="0%"></stop>
            <stop stop-color="#4477FF" stop-opacity="0" offset="100%"></stop>
        </linearGradient>
    </defs>
    <g id="页面-1" stroke="none" stroke-width="1" fill="none" fill-rule="evenodd">
        <g id="首页" transform="translate(-1199.000000, -706.000000)">
            <g id="折线图3" transform="translate(1200.000000, 708.000000)">
                <polyline id="路径-6" stroke="#4477FF" points="0 52.7528197 10.0468653 54.6876391 23.7339709 51.0499345 34.2759385 55.7923782 45.4776301 43.6806836 57.8390991 47.294737 69.1732306 48.2804573 80.9294369 21.1311878 91.9231855 15.8920692 104.933239 29.3709548 115.14225 19.501545 127.308153 22.7181059 138.514796 19.501545 149.941759 0 172.81549 45.2286917 185.886193 48.2804573 198.892533 48.2804573 220.141089 55.7923782 231.361347 49.5675394 242.752416 52.7528197 255.610225 54.6876391 266.001186 51.0499345 277.551925 54.6876391 288.897196 51.0499345 301.58172 37.4581336 314.127614 54.6876391 324.778504 54.6876391 336 60"></polyline>
                <polyline id="路径-6" fill="url(#linearGradient-1)" points="0 52.7528197 10.0468653 54.6876391 23.7339709 51.0499345 34.2759385 55.7923782 45.4776301 43.6806836 57.8390991 47.294737 69.1732306 48.2804573 80.9294369 21.1311878 91.9231855 15.8920692 104.933239 29.3709548 115.14225 19.501545 127.308153 22.7181059 138.514796 19.501545 149.941759 0 172.81549 45.2286917 185.886193 48.2804573 198.892533 48.2804573 220.141089 55.7923782 231.361347 49.5675394 242.752416 52.7528197 255.610225 54.6876391 266.001186 51.0499345 277.551925 54.6876391 288.897196 51.0499345 301.58172 37.4581336 314.127614 54.6876391 324.778504 54.6876391 336 60 0 60"></polyline>
            </g>
        </g>
    </g>
</svg>