<?xml version="1.0" encoding="UTF-8"?>
<svg width="20px" height="20px" viewBox="0 0 20 20" version="1.1" xmlns="http://www.w3.org/2000/svg" xmlns:xlink="http://www.w3.org/1999/xlink">
    <title>最新交易icon</title>
    <defs>
        <filter color-interpolation-filters="auto" id="filter-1">
            <feColorMatrix in="SourceGraphic" type="matrix" values="0 0 0 0 1.000000 0 0 0 0 1.000000 0 0 0 0 1.000000 0 0 0 1.000000 0"></feColorMatrix>
        </filter>
    </defs>
    <g id="页面-1" stroke="none" stroke-width="1" fill="none" fill-rule="evenodd">
        <g id="首页" transform="translate(-996.000000, -1308.000000)">
            <g id="编组-4备份" transform="translate(996.000000, 1306.000000)">
                <g id="最新交易icon" transform="translate(0.000000, 2.000000)">
                    <rect id="矩形" fill="#44A0FF" x="0" y="0" width="20" height="20" rx="4"></rect>
                    <g filter="url(#filter-1)" id="编组">
                        <g transform="translate(4.000000, 4.000000)">
                            <path d="M1.19585175,5.51855788 C1.5095704,5.83066482 3.02374998,7.52591232 4.82276192,8.19614196 C6.02187928,8.64296172 7.36206928,8.84836543 8.84198834,8.8103524 C7.99622434,8.07209946 7.57367821,7.51790958 7.57367822,7.14778277 C7.57367822,6.59359289 8.02981307,6.45621249 8.43556482,6.52490268 C8.64247134,6.55958124 9.39284338,7.01040235 10.6705584,7.64195208 C10.8694036,7.74065257 11.1723739,7.87003023 11.5774538,8.03141885 C11.8327208,8.13266033 12,8.37807634 12,8.65096445 L12,10.1508117 C12,10.4963524 11.7340602,10.7846317 11.3873417,10.8150393 C9.98534843,10.937748 8.92797547,10.9997692 8.2152228,10.9997692 C6.99528042,10.9997692 5.3091266,11.033114 3.82652043,10.2981955 C2.34324248,9.56394393 0.439433745,7.96673002 0.0706295811,6.52490268 C-0.298174583,5.08307535 0.882133091,5.20578405 1.19585175,5.51789098 L1.19585175,5.51855788 Z M5.44482504,2.08850832e-07 C6.95215673,-0.000463380448 8.35314401,0.770877585 9.15094718,2.04047849 C9.94875034,3.31007939 10.030542,4.89839 9.36731596,6.24213913 C8.16618327,5.66860929 7.58912903,5.73930017 7.19614099,6.12876696 C6.80315294,6.51956753 6.64058354,7.13044348 7.27003617,7.9560597 C6.54855043,7.9560597 5.56037023,7.86802954 4.36662708,7.30850449 C3.1728839,6.74831256 1.89651249,5.47854417 1.07829123,4.33481898 C1.07829123,3.18515362 1.53833543,2.08257555 2.35721937,1.26963938 C3.17610331,0.456703205 4.28674827,2.08850832e-07 5.44482504,2.08850832e-07 Z M4.56480054,2.03336377 L4.13956732,2.03336377 C4.09038048,2.03353136 4.04521764,2.06036842 4.02183125,2.10332595 C3.99844486,2.14628348 4.0005737,2.19849384 4.02738098,2.23943437 L4.93965067,3.62924389 L4.2450359,3.62924389 C4.20940277,3.62924389 4.17522907,3.64329628 4.15003264,3.6683097 C4.12483622,3.69332313 4.11068101,3.72724861 4.11068102,3.76262293 L4.11068102,3.99003417 C4.11068102,4.06339264 4.17114072,4.1234132 4.2450359,4.1234132 L5.1277475,4.1234132 L5.13312171,4.12874837 L5.13312171,4.52688478 L4.2450359,4.52688478 C4.20940277,4.52688478 4.17522908,4.54093718 4.15003265,4.5659506 C4.12483622,4.59096402 4.11068102,4.62488949 4.11068102,4.66026381 L4.11068102,4.89367711 C4.11068102,4.96703557 4.17114072,5.02705614 4.2450359,5.02705615 L5.13312171,5.02705615 L5.13312171,5.53523027 C5.13312171,5.60858873 5.19358141,5.66860929 5.26747659,5.66860929 L5.62217349,5.66860929 C5.69637564,5.66860929 5.75652837,5.60889347 5.75652837,5.53523027 L5.75652837,5.02705615 L6.65939321,5.02705615 C6.69502635,5.02705616 6.72920004,5.01300377 6.75439647,4.98799034 C6.77959291,4.96297692 6.79374811,4.92905143 6.79374811,4.89367711 L6.79374811,4.66026381 C6.79374811,4.62488949 6.7795929,4.59096401 6.75439647,4.56595059 C6.72920004,4.54093717 6.69502634,4.52688478 6.65939321,4.52688478 L5.75652837,4.52688478 L5.75652837,4.12874837 L6.66006499,4.1240801 C6.73400467,4.12371309 6.79374903,4.06410463 6.79374811,3.99070107 L6.79374811,3.76262293 C6.79374811,3.72724861 6.77959291,3.69332312 6.75439647,3.6683097 C6.72920004,3.64329627 6.69502635,3.62924388 6.65939321,3.62924389 L5.94999941,3.62924389 L6.8622691,2.23943437 C6.88944439,2.19846894 6.89177745,2.14600161 6.868344,2.10281833 C6.84491054,2.05963506 6.79949236,2.03269687 6.75008276,2.03269687 L6.32484954,2.03269687 C6.30200974,2.03273464 6.28075397,2.04429017 6.26842049,2.06337405 L5.44482504,3.31580317 L4.62122959,2.06337405 C4.60873903,2.04454456 4.58751086,2.03325493 4.56480054,2.03336377 L4.56480054,2.03336377 Z" id="形状" fill="#000000" fill-rule="nonzero"></path>
                        </g>
                    </g>
                </g>
            </g>
        </g>
    </g>
</svg>