<?xml version="1.0" encoding="UTF-8"?>
<svg width="20px" height="20px" viewBox="0 0 20 20" version="1.1" xmlns="http://www.w3.org/2000/svg" xmlns:xlink="http://www.w3.org/1999/xlink">
    <title>最新区块icon</title>
    <g id="页面-1" stroke="none" stroke-width="1" fill="none" fill-rule="evenodd">
        <g id="首页" transform="translate(-384.000000, -1308.000000)">
            <g id="编组-4" transform="translate(384.000000, 1306.000000)">
                <g id="最新区块icon" transform="translate(0.000000, 2.000000)">
                    <rect id="矩形" fill="#FF8744" x="0" y="0" width="20" height="20" rx="4"></rect>
                    <path d="M15.4971369,16 L8.50390422,16 C8.225924,16 8.00104112,15.7751171 8.00104112,15.4971369 L8.00104112,13.2014576 L12.61114,13.2014576 C12.9953149,13.2014576 13.1983342,12.9234774 13.1983342,12.5517959 L13.1983342,10 L11.9989589,10 L11.9989589,11.4992192 C11.9989589,11.7771994 11.774076,12.0020822 11.4960958,12.0020822 L7.50442478,12.0020822 L4.50286309,11.9989589 C4.22488287,11.9989589 4,11.774076 4,11.4960958 L4,4.50286309 C4,4.22488287 4.22488287,4 4.50286309,4 L11.4960958,4 C11.774076,4 11.9989589,4.22488287 11.9989589,4.50286309 L11.9989589,6.79854243 L7.35450286,6.79854243 C7.03279542,6.79854243 6.79854243,7.11087975 6.79854243,7.30765226 L6.79854243,10 L7.99791775,10 L7.99791775,8.50078084 C7.99791775,8.225924 8.22280062,8.00104112 8.49765747,8.00104112 L15.4940135,8.00104112 C15.7719938,8.00104112 15.9969403,8.225924 15.9969403,8.50390422 L15.9969403,15.4971369 C16,15.7751171 15.7751171,16 15.4971369,16 Z" id="路径" fill="#FFFFFF"></path>
                </g>
            </g>
        </g>
    </g>
</svg>