<?xml version="1.0" encoding="UTF-8"?>
<svg width="24px" height="24px" viewBox="0 0 24 24" version="1.1" xmlns="http://www.w3.org/2000/svg" xmlns:xlink="http://www.w3.org/1999/xlink">
    <title>节点数icon</title>
    <defs>
        <filter color-interpolation-filters="auto" id="filter-1">
            <feColorMatrix in="SourceGraphic" type="matrix" values="0 0 0 0 1.000000 0 0 0 0 1.000000 0 0 0 0 1.000000 0 0 0 1.000000 0"></feColorMatrix>
        </filter>
    </defs>
    <g id="页面-1" stroke="none" stroke-width="1" fill="none" fill-rule="evenodd">
        <g id="首页" transform="translate(-384.000000, -634.000000)">
            <g id="节点数icon" transform="translate(384.000000, 634.000000)">
                <circle id="椭圆形" fill="#4477FF" cx="12" cy="12" r="12"></circle>
                <g filter="url(#filter-1)" id="编组">
                    <g transform="translate(6.000000, 6.000000)">
                        <path d="M0.173999997,3.31896438 C0.198834231,3.31883531 0.223400876,3.32393935 0.245999996,3.33392332 L5.3237142,5.60601981 C5.47618941,5.67443289 5.57337202,5.82291763 5.57229464,5.98581062 L5.54485705,11.8339244 C5.54481023,11.8896454 5.51596885,11.9416364 5.46804481,11.9723904 C5.42012077,12.0031444 5.35949088,12.0085692 5.30657134,11.986838 L0.26228571,9.92915292 C0.103590546,9.8643793 0.000285817481,9.71381165 0,9.54686895 L0.00257142853,3.4835127 C0.00257142853,3.39209696 0.0797142844,3.31730227 0.173999997,3.31730227 L0.173999997,3.31896438 Z M11.8285712,3.4993019 C11.922857,3.4993019 11.9999999,3.57409738 11.9999999,3.66551311 L11.9999999,9.54520684 C12.0001153,9.7131567 11.895942,9.8646602 11.7359998,9.92915292 L6.63942847,11.986838 C6.58631831,12.0083204 6.52563426,12.0025331 6.47785895,11.9714295 C6.43008364,11.9403258 6.40159167,11.8880559 6.40199557,11.8322623 L6.42942847,5.99162799 C6.43028561,5.82541757 6.53228561,5.67582818 6.68999989,5.61100612 L11.760857,3.51259952 C11.7822637,3.50375756 11.805303,3.4993019 11.8285712,3.4993019 L11.8285712,3.4993019 Z M5.83285705,0.0279979922 C5.93747992,-0.0112515123 6.05380471,-0.00916292048 6.15685704,0.033815357 L11.6339998,2.31754658 C11.6966811,2.34389178 11.7372451,2.4038067 11.7372451,2.47004464 C11.7372451,2.53628258 11.6966811,2.5961975 11.6339998,2.6225427 L6.1799999,4.8963013 C6.06738696,4.94316682 5.9394686,4.94104933 5.82857134,4.89048393 L0.352285709,2.38901706 C0.289935468,2.36081087 0.251019261,2.29919469 0.253340806,2.23252738 C0.255877327,2.16586008 0.299180917,2.10705999 0.363428566,2.08318988 L5.83285705,0.0279979922 Z" id="形状" fill="#707070" fill-rule="nonzero"></path>
                    </g>
                </g>
            </g>
        </g>
    </g>
</svg>