<?xml version="1.0" encoding="UTF-8"?>
<svg width="36px" height="36px" viewBox="0 0 36 36" version="1.1" xmlns="http://www.w3.org/2000/svg" xmlns:xlink="http://www.w3.org/1999/xlink">
    <title>交易总数icon</title>
    <g id="页面-1" stroke="none" stroke-width="1" fill="none" fill-rule="evenodd">
        <g id="首页" transform="translate(-586.000000, -416.000000)" fill-rule="nonzero">
            <g id="编组-12" transform="translate(566.000000, 392.000000)">
                <g id="交易总数icon" transform="translate(20.000000, 24.000000)">
                    <path d="M0,18 C0,27.9411255 8.0588745,36 18,36 C27.9411255,36 36,27.9411255 36,18 C36,8.0588745 27.9411255,0 18,0 C8.0588745,0 0,8.0588745 0,18 Z" id="路径" fill="#EFF4FF"></path>
                    <path d="M21.839,10.5 C20.4165,10.5 19.241,11.5745 19.056,12.9485 C17.7305,13.406 16.766,14.657 16.766,16.1365 C16.766,17.999 18.2855,19.518 20.148,19.518 C22.0105,19.518 23.5295,17.999 23.5295,16.1365 C23.5295,15.969 23.5035,15.8015 23.477,15.643 C24.234,15.15 24.657,14.287 24.657,13.318 C24.657,11.768 23.389,10.5 21.839,10.5 Z M21.839,11.6274908 C22.2877559,11.6261668 22.7185162,11.8038444 23.0358359,12.1211641 C23.3531556,12.4384838 23.5308332,12.8692441 23.5295075,13.318 C23.5295075,13.864 23.3845,14.2515 23.1025,14.5245 C22.539,13.503 21.4775,12.7985 20.249,12.7635 C20.4797998,12.0824881 21.119945,11.6251266 21.839,11.6274908 L21.839,11.6274908 Z M20.148,13.8819891 C20.746501,13.880133 21.3210273,14.1170604 21.7442334,14.5402666 C22.1674396,14.9634727 22.404367,15.537999 22.402511,16.1365 C22.4043677,16.7350879 22.1673718,17.3096906 21.7440572,17.7329113 C21.3207426,18.156132 20.7460875,18.3930005 20.1475,18.3910126 C19.5489986,18.3927343 18.9745248,18.1556794 18.5514126,17.7323794 C18.1283003,17.3090794 17.8915003,16.7345006 17.8934874,16.136 C17.8917664,15.5375856 18.1287527,14.9631881 18.5519443,14.5400904 C18.975136,14.1169926 19.549586,13.8801337 20.148,13.8819891 L20.148,13.8819891 Z M14.5115,18.391 C13.8905,18.391 13.226,18.558 13.226,18.558 C13.2035,18.563 13.1815,18.567 13.164,18.576 L10.381,19.549 C10.086,19.6505 9.93199999,19.9675 10.029,20.258 L11.156,23.6395 C11.2055725,23.7875349 11.31384,23.9086701 11.4554025,23.9744867 C11.596965,24.0403033 11.759364,24.0450091 11.9045,23.9875 L14.485,22.9525 L18.0695,24.7185 L18.0035,24.6835 C18.8286538,25.2294264 19.8790864,25.3045115 20.7735,24.8815 C20.7995,24.8685 20.826,24.855 20.8485,24.8375 L25.5375,21.676 L26,21.363 L25.375,20.4255 L24.9035,20.7425 L20.28,23.8645 C19.7461134,24.113917 19.1211132,24.0688822 18.6285,23.7455 C18.6065,23.732 18.589,23.719 18.5625,23.7105 L14.758,21.83 C14.6144764,21.7604622 14.4484115,21.7541169 14.3,21.8125 L12.037,22.7195 L11.2795,20.4295 L13.499,19.6505 C13.525,19.6455 14.124,19.518 14.5115,19.518 C15.0315,19.518 15.313,19.536 15.8545,19.9585 C16.8235,20.7245 17.2545,21.1785 17.9155,21.46 C18.5755,21.7465 19.2935,21.7725 20.7115,21.7725 L21.275,21.7725 L21.275,20.6455 L20.7115,20.6455 C19.3115,20.6455 18.761,20.6015 18.3645,20.4255 C17.968,20.2535 17.5545,19.8615 16.5505,19.078 C15.824,18.5055 15.119,18.391 14.5115,18.391 L14.5115,18.391 Z" id="形状" stroke="#3D5695" stroke-width="0.2" fill="#3D5695"></path>
                </g>
            </g>
        </g>
    </g>
</svg>