<?xml version="1.0" encoding="UTF-8"?>
<svg width="24px" height="24px" viewBox="0 0 24 24" version="1.1" xmlns="http://www.w3.org/2000/svg" xmlns:xlink="http://www.w3.org/1999/xlink">
    <title>通道数icon</title>
    <g id="页面-1" stroke="none" stroke-width="1" fill="none" fill-rule="evenodd">
        <g id="首页" transform="translate(-1200.000000, -634.000000)">
            <g id="通道数icon" transform="translate(1200.000000, 634.000000)">
                <circle id="椭圆形备份" fill="#4477FF" cx="12" cy="12" r="12"></circle>
                <path d="M18,11.5 L15.0020067,11.5 C14.9367893,9.32500001 14.4431438,7.42400001 13.7167224,6.25 C16.0924401,6.95449476 17.7920919,9.03824073 17.9989967,11.5 L18,11.5 Z M18,12.5 L15.0020067,12.5 C14.9367893,14.675 14.4431438,16.576 13.7167224,17.75 C16.0924401,17.0455052 17.7920919,14.9617593 17.9989967,12.5 L18,12.5 Z M12,18 C12.1210702,18 12.2635452,17.9246667 12.4274248,17.774 C12.7083612,17.5146667 12.967893,17.1086667 13.2060201,16.556 C13.6896321,15.432 13.9538462,14.08 13.9986622,12.5 L10.0013378,12.5 C10.0468227,14.08 10.3110368,15.432 10.7939799,16.556 C11.032107,17.1086667 11.2919732,17.5146667 11.5735786,17.774 C11.7374582,17.9246667 11.8795987,18 12,18 Z M10.2842809,17.75 C7.90777473,17.0461909 6.2072035,14.9622941 6,12.5 L8.99799331,12.5 C9.0632107,14.675 9.55685618,16.576 10.2832776,17.75 L10.2842809,17.75 Z M6,11.5 L8.99799331,11.5 C9.0632107,9.32500001 9.55685618,7.42400001 10.2832776,6.25 C7.90755987,6.95449476 6.20790812,9.03824073 6.00100335,11.5 L6,11.5 Z M12,6 C11.8789298,6 11.7364548,6.07533333 11.5725752,6.226 C11.2916388,6.48533334 11.032107,6.89133333 10.7939799,7.44399999 C10.3103679,8.568 10.0461538,9.92 10.0013378,11.5 L13.9996656,11.5 C13.9541806,9.92 13.6899666,8.568 13.2070234,7.44399999 C12.9688963,6.89133332 12.7090301,6.48533333 12.4274248,6.226 C12.2628763,6.07533333 12.1204013,6 12,6 Z" id="形状" fill="#FFFFFF" fill-rule="nonzero"></path>
            </g>
        </g>
    </g>
</svg>