<svg width="28" height="28" viewBox="0 0 28 28" fill="none" xmlns="http://www.w3.org/2000/svg">
<path d="M14 28C21.732 28 28 21.732 28 14C28 6.26801 21.732 0 14 0C6.26801 0 0 6.26801 0 14C0 21.732 6.26801 28 14 28Z" fill="#2C81E5"/>
<path d="M8.84873 13L12.875 15.1964L12.8488 19.6822L8.85003 22L5 19.665V15.2112L8.84873 13ZM18.9737 13L23 15.1964L22.9738 19.6822L18.975 22L15.125 19.665V15.2112L18.9737 13ZM8.88018 15.5875L7.25 16.5359V18.525L8.87777 19.525L10.6129 18.5058L10.625 16.5527L8.88018 15.5875ZM19.0052 15.5875L17.375 16.5359V18.525L19.0028 19.525L20.7379 18.5058L20.75 16.5527L19.0052 15.5875ZM13.9987 4L18.025 6.19643L17.9988 10.6822L14 13L10.15 10.665V6.21124L13.9987 4ZM14.0302 6.5875L12.4 7.53586V9.52502L14.0277 10.525L15.7629 9.50581L15.775 7.55267L14.0302 6.5875Z" fill="white"/>
</svg>
