<svg width="28" height="29" viewBox="0 0 28 29" fill="none" xmlns="http://www.w3.org/2000/svg">
<path d="M14 28.5C21.732 28.5 28 22.232 28 14.5C28 6.76801 21.732 0.5 14 0.5C6.26801 0.5 0 6.76801 0 14.5C0 22.232 6.26801 28.5 14 28.5Z" fill="#349F30"/>
<path fill-rule="evenodd" clip-rule="evenodd" d="M19.5 17C20.3284 17 21 16.3284 21 15.5C21 14.6716 20.3284 14 19.5 14C18.6716 14 18 14.6716 18 15.5C18 16.3284 18.6716 17 19.5 17ZM19.5 19C21.433 19 23 17.433 23 15.5C23 13.567 21.433 12 19.5 12C17.567 12 16 13.567 16 15.5C16 17.433 17.567 19 19.5 19Z" fill="white"/>
<path d="M17 17.2422V22L19.5 20L22 22V17.2422C21.285 17.7209 20.4251 18 19.5 18C18.5749 18 17.715 17.7209 17 17.2422Z" fill="white"/>
<rect x="10" y="12" width="6" height="1" fill="white"/>
<rect x="10" y="14" width="3" height="1" fill="white"/>
<path d="M19 10H8V18H15V20H6V8H21V11.2561C20.5308 11.0902 20.026 11 19.5 11C19.331 11 19.1642 11.0093 19 11.0275V10Z" fill="white"/>
</svg>
